<?xml version="1.0" encoding="UTF-8"?>
<svg id="_구름" data-name="구름" xmlns="http://www.w3.org/2000/svg" viewBox="0 0 1024 768">
  <defs>
    <style>
      .cls-1 {
        fill: #81bdc3;
      }

      .cls-2 {
        fill: #6d843a;
      }

      .cls-3 {
        fill: #e1feff;
      }

      .cls-4 {
        fill: #979d3b;
      }

      .cls-5 {
        fill: none;
        stroke: #6d843a;
        stroke-linecap: round;
        stroke-linejoin: round;
        stroke-width: 4px;
      }

      .cls-6 {
        fill: #8c4f1f;
      }

      .cls-7 {
        fill: #794218;
      }
    </style>
  </defs>
  <g id="_배경" data-name="배경">
    <g id="_땅" data-name="땅">
      <rect class="cls-6" x="0" y="547.9" width="1024" height="220.1"/>
      <g id="_자갈" data-name="자갈">
        <path class="cls-7" d="M119.06,623.7l-7.33-3.65c-4.35-2.16-6.16-7.41-4.08-11.79l1.14-2.41c1.47-3.11,4.61-5.09,8.05-5.09h12.37c3.44,0,6.58,1.98,8.05,5.09l1.14,2.41c2.08,4.39.27,9.63-4.08,11.79l-7.33,3.65c-2.5,1.25-5.44,1.25-7.94,0Z"/>
        <path class="cls-7" d="M582.41,733.3l-7.92-10.46c-3.33-4.41-2.53-10.67,1.81-14.09l4.73-3.73c3.08-2.43,7.29-2.86,10.8-1.11l16.35,8.14c3.5,1.74,5.69,5.34,5.62,9.25l-.1,6.05c-.1,5.53-4.61,9.97-10.14,9.97h-13.06c-3.18,0-6.17-1.49-8.09-4.02Z"/>
        <path class="cls-7" d="M947.32,678.85l-7.03,4.17c-4.19,2.48-9.59,1.15-12.14-3l-1.39-2.26c-1.8-2.92-1.75-6.62.11-9.5l6.75-10.43c1.87-2.89,5.24-4.44,8.65-3.99l2.6.35c4.82.64,8.23,5.02,7.68,9.85l-.94,8.17c-.32,2.77-1.91,5.23-4.31,6.65Z"/>
        <path class="cls-7" d="M890.8,596.44l.51,8.21c.3,4.85-3.34,9.05-8.18,9.44l-2.62.21c-3.43.28-6.72-1.45-8.43-4.43l-6.2-10.76c-1.71-2.97-1.57-6.67.38-9.5l1.5-2.18c2.76-4.01,8.23-5.06,12.28-2.37l6.8,4.53c2.32,1.54,3.78,4.08,3.96,6.86Z"/>
        <path class="cls-7" d="M965.99,620.83l-.71-3.14c-.7-3.09,1.21-6.17,4.29-6.93h0c2.18-.54,4.48.23,5.9,1.98l3.6,4.44c1.41,1.74,1.7,4.13.74,6.16v.02c-1.37,2.87-4.78,4.12-7.67,2.8l-2.89-1.32c-1.65-.75-2.86-2.24-3.26-4.01Z"/>
        <path class="cls-7" d="M740.24,697.77l-4.39.69c-4.4.69-8.55-2.27-9.32-6.66v-.03c-.55-3.1.74-6.24,3.31-8.06l6.52-4.64c2.57-1.83,5.97-2.01,8.73-.47h0c3.88,2.18,5.31,7.06,3.21,10.98l-2.12,3.97c-1.21,2.25-3.4,3.81-5.93,4.21Z"/>
        <path class="cls-7" d="M391.94,624.05l7.99-1.67c4.76-.99,9.44,2.02,10.51,6.76l.59,2.6c.76,3.35-.48,6.84-3.18,8.96l-9.74,7.67c-2.71,2.13-6.4,2.51-9.48.98l-2.36-1.18c-4.35-2.16-6.16-7.41-4.08-11.79l3.52-7.43c1.2-2.52,3.5-4.34,6.23-4.9Z"/>
        <path class="cls-7" d="M60.27,709.93l2.71,3.58c2.68,3.55,2.03,8.59-1.46,11.34h0c-2.48,1.96-5.87,2.31-8.69.9l-7.15-3.56c-2.82-1.4-4.58-4.3-4.53-7.45v-.03c.08-4.45,3.71-8.03,8.17-8.03h4.45c2.56,0,4.97,1.2,6.51,3.24Z"/>
        <path class="cls-7" d="M179.78,644.32l-.22-3.51c-.22-3.46,2.38-6.45,5.83-6.73h0c2.45-.2,4.79,1.03,6.02,3.16l3.13,5.43c1.22,2.12,1.12,4.76-.27,6.77v.02c-1.98,2.86-5.88,3.61-8.77,1.69l-2.9-1.93c-1.65-1.1-2.7-2.91-2.82-4.89Z"/>
        <path class="cls-7" d="M334.28,722.29l-.22-3.51c-.22-3.46,2.38-6.45,5.83-6.73h0c2.45-.2,4.79,1.03,6.02,3.16l3.13,5.43c1.22,2.12,1.12,4.76-.27,6.77v.02c-1.98,2.86-5.88,3.61-8.77,1.69l-2.9-1.93c-1.65-1.1-2.7-2.91-2.82-4.89Z"/>
      </g>
    </g>
    <g id="_하늘" data-name="하늘">
      <rect class="cls-1" x="0" y="0" width="1024" height="402.59"/>
      <g>
        <path class="cls-3" d="M253.23,249.95h-.25c.15-.75.23-1.53.23-2.33,0-6.63-5.37-12-11.99-12-3.39,0-6.45,1.42-8.63,3.69-.64-11.5-10.15-20.62-21.8-20.62-9.84,0-18.16,6.52-20.88,15.48-2.23-1.53-4.93-2.42-7.84-2.42-7.69,0-13.93,6.24-13.93,13.94,0,1.49.24,2.93.67,4.27h-.46c-5.45,0-9.86,4.42-9.86,9.87s4.41,9.87,9.86,9.87h84.87c5.45,0,9.86-4.42,9.86-9.87s-4.41-9.87-9.86-9.87Z"/>
        <path class="cls-3" d="M969.88,209.02h-.86c.53-1.48.83-3.06.83-4.72,0-7.74-6.26-14.01-13.99-14.01-3.96,0-7.53,1.65-10.07,4.3-.75-13.42-11.85-24.06-25.43-24.06-11.48,0-21.19,7.61-24.37,18.06-2.61-1.78-5.75-2.82-9.15-2.82-8.98,0-16.25,7.29-16.25,16.27,0,2.5.58,4.87,1.59,6.99h-1.34c-6.36,0-11.51,5.16-11.51,11.52s5.15,11.52,11.51,11.52h99.04c6.35,0,11.51-5.16,11.51-11.52s-5.15-11.52-11.51-11.52ZM942.71,209.02h-.42c.09-.15.17-.3.26-.45.05.15.11.3.16.45Z"/>
        <path class="cls-3" d="M738.15,87.51c-6.36,0-12.32,1.69-17.47,4.63-2.93-10.09-12.23-17.47-23.25-17.47-4.83,0-9.33,1.42-13.1,3.86-6.87-15.43-22.32-26.2-40.28-26.2-22.04,0-40.3,16.19-43.57,37.33-3.32-1.38-6.97-2.15-10.79-2.15-14.99,0-27.24,11.75-28.08,26.55-4.64-4.65-11.06-7.53-18.14-7.53-14.17,0-25.65,11.5-25.65,25.68s11.48,25.68,25.65,25.68c1.22,0,2.41-.09,3.59-.26,1.33.28,2.71.44,4.13.44h181.63c.29,0,.57-.03.85-.04,1.47.19,2.97.29,4.49.29,19.53,0,35.37-15.85,35.37-35.41s-15.83-35.41-35.37-35.41ZM682.53,118.02c.08.06.15.12.23.18h-.33c.03-.06.07-.12.1-.18Z"/>
        <path class="cls-3" d="M90.52,70.03c-8.82,0-16.44,5.12-20.07,12.56.1-1.12.16-2.25.16-3.39,0-20.32-16.45-36.79-36.74-36.79C18.64,42.41,5.57,51.69,0,64.91v49.83h93.9c4.1,0,6.75-1.58,10.31-4.71s8.62-10.47,8.62-17.64c0-12.34-9.99-22.35-22.32-22.35Z"/>
      </g>
    </g>
    <path id="_나무" data-name="나무" class="cls-2" d="M1024,331.25c-9.23-6.84-20.65-10.89-33.02-10.89-18.84,0-35.48,9.39-45.53,23.75-2.63-.38-5.32-.59-8.05-.59-20.52,0-38.43,11.14-48.06,27.71-7.3-9.54-18.79-15.69-31.72-15.69s-25.51,6.76-32.74,17.09c-5.61-5.11-13.06-8.22-21.25-8.22-11.23,0-21.09,5.88-26.69,14.72-5.44-25.01-27.68-43.75-54.29-43.75-23.79,0-44.09,14.98-52.01,36.02-5.78-7.43-14.79-12.21-24.92-12.21-11.96,0-22.36,6.65-27.73,16.46-8.85-18.98-28.07-32.13-50.37-32.13-6.64,0-13,1.17-18.9,3.31-10.07-14.19-26.61-23.46-45.33-23.46-25.36,0-46.73,17.01-53.41,40.25-4.64-2.68-10.01-4.22-15.75-4.22-13.83,0-25.58,8.91-29.86,21.3-9.76-8.52-22.52-13.69-36.49-13.69-10.29,0-19.91,2.81-28.18,7.69-6.24-13.94-20.21-23.66-36.46-23.66-8.26,0-15.93,2.51-22.3,6.81-10.13-10.69-24.44-17.38-40.33-17.38-20.36,0-38.16,10.97-47.84,27.32-5.52-4.73-12.69-7.59-20.52-7.59-10.58,0-19.94,5.21-25.67,13.21-5.7-15.12-20.28-25.88-37.38-25.88-9.89,0-18.93,3.61-25.91,9.57-8.73-19.3-28.11-32.73-50.64-32.73C20.45,324.37,9.17,328.32,0,335v103.34h1024v-107.09Z"/>
    <g id="_잔디" data-name="잔디">
      <rect class="cls-4" x="0" y="438.4" width="1024" height="109.56"/>
      <g id="_잡초" data-name="잡초">
        <g>
          <path class="cls-5" d="M78.29,497.39s-6.97,8.27-2.32,20.68"/>
          <path class="cls-5" d="M86.04,507.73s-7.49,2.58-4.9,10.34"/>
          <path class="cls-5" d="M64.6,504.39s4.78.45,5.23,12.66"/>
        </g>
        <g>
          <path class="cls-5" d="M946.29,507.73s-6.97,8.27-2.32,20.68"/>
          <path class="cls-5" d="M954.04,518.07s-7.49,2.58-4.9,10.34"/>
          <path class="cls-5" d="M932.6,514.73s4.78.45,5.23,12.66"/>
        </g>
        <g>
          <path class="cls-5" d="M779.95,470.3s6.97,8.27,2.32,20.68"/>
          <path class="cls-5" d="M772.2,480.64s7.49,2.58,4.9,10.34"/>
          <path class="cls-5" d="M793.64,477.3s-4.78.45-5.23,12.66"/>
        </g>
        <g>
          <path class="cls-5" d="M614.97,487.06s-6.97,8.27-2.32,20.68"/>
          <path class="cls-5" d="M622.71,497.39s-7.49,2.58-4.9,10.34"/>
          <path class="cls-5" d="M601.28,494.06s4.78.45,5.23,12.66"/>
        </g>
        <g>
          <path class="cls-5" d="M423.38,456.62s6.97,8.27,2.32,20.68"/>
          <path class="cls-5" d="M415.64,466.96s7.49,2.58,4.9,10.34"/>
          <path class="cls-5" d="M437.07,463.62s-4.78.45-5.23,12.66"/>
        </g>
        <g>
          <path class="cls-5" d="M219.57,475.47s6.97,8.27,2.32,20.68"/>
          <path class="cls-5" d="M211.83,485.81s7.49,2.58,4.9,10.34"/>
          <path class="cls-5" d="M233.26,482.47s-4.78.45-5.23,12.66"/>
        </g>
      </g>
    </g>
  </g>
</svg>