<?xml version="1.0" encoding="UTF-8"?>
<svg id="_레이어_2" data-name="레이어 2" xmlns="http://www.w3.org/2000/svg" viewBox="0 0 122.23 92.75">
  <defs>
    <style>
      .cls-1 {
        fill: #291c07;
      }

      .cls-2 {
        fill: #f93;
      }

      .cls-3 {
        fill: #ffc931;
      }
    </style>
  </defs>
  <g id="_악어새" data-name="악어새">
    <g>
      <path class="cls-3" d="M91.58,59.74l17.86,2.73s2.06,9.22-3.09,12.63l-20.61-10.58,5.84-4.78Z"/>
      <path class="cls-1" d="M106.35,77.58c-.39,0-.78-.09-1.15-.28l-20.61-10.58c-.75-.38-1.25-1.11-1.34-1.94s.25-1.65.9-2.18l5.84-4.78c.55-.45,1.27-.64,1.97-.54l17.86,2.73c1.02.15,1.83.91,2.06,1.91.1.44,2.36,10.93-4.14,15.23-.42.28-.9.42-1.38.42ZM90.24,64.04l15.71,8.06c1.48-1.94,1.54-5.22,1.31-7.46l-14.96-2.29-2.06,1.68Z"/>
    </g>
    <g>
      <path class="cls-3" d="M82.49,69.79l5.55,17.09s9.48.56,12.06-5.04l-13.79-18.54-3.82,6.49Z"/>
      <path class="cls-1" d="M88.74,89.37c-.47,0-.77-.02-.84-.02-1.03-.06-1.91-.74-2.23-1.71l-5.55-17.09c-.22-.67-.14-1.4.22-2.01l3.82-6.49c.42-.72,1.18-1.18,2.02-1.22.85-.07,1.64.33,2.14,1l13.79,18.54c.54.73.64,1.68.26,2.5-2.76,6-10.95,6.51-13.63,6.51ZM85.21,70.08l4.65,14.31c2.26-.12,5.51-.71,7.2-2.47l-10.51-14.13-1.35,2.29Z"/>
    </g>
    <g>
      <path class="cls-3" d="M24.59,28.67s-45-2.05-6.18,21.51"/>
      <path class="cls-1" d="M18.4,52.66c-.44,0-.89-.12-1.3-.36C3.97,44.32-1.19,38.48.39,33.35c2.33-7.56,19.2-7.38,24.31-7.15,1.38.06,2.44,1.22,2.38,2.59-.06,1.37-1.24,2.43-2.61,2.36-10.58-.48-18.67,1.54-19.31,3.65-.12.38-.71,4.01,14.55,13.26,1.18.71,1.55,2.24.83,3.41-.47.77-1.29,1.19-2.13,1.19Z"/>
    </g>
    <g>
      <ellipse class="cls-3" cx="56.63" cy="46.37" rx="43.79" ry="43.52"/>
      <path class="cls-1" d="M56.63,92.38c-25.52,0-46.29-20.64-46.29-46S31.1.38,56.63.38s46.29,20.64,46.29,46-20.77,46-46.29,46ZM56.63,5.33c-22.77,0-41.3,18.41-41.3,41.04s18.53,41.04,41.3,41.04,41.3-18.41,41.3-41.04S79.4,5.33,56.63,5.33Z"/>
    </g>
    <g>
      <path class="cls-3" d="M85.3,55.86s6.76,29.02-18.93,7.53"/>
      <path class="cls-1" d="M80.85,73.82c-4,0-9.24-2.79-16.1-8.53-1.05-.88-1.19-2.45-.3-3.49.89-1.05,2.46-1.18,3.52-.3,10.28,8.6,13.5,7.4,14.03,7.08,2.1-1.28,1.85-7.88.87-12.15-.31-1.33.53-2.67,1.87-2.97,1.33-.31,2.68.52,2.99,1.85.53,2.28,2.88,13.85-3.12,17.5-1.11.68-2.36,1.02-3.76,1.02Z"/>
    </g>
    <g>
      <path class="cls-2" d="M12.38,59.96c-1.35-1.16-1.27-3.27.18-4.3,3.67-2.62,10.82-4.63,18.02-4.58,1.58,0,3.17.6,4.13,1.32,2.99,2.25,3.61,6.23,3.42,9.07-.11,1.64-.74,3.63-2.26,4.63s-3.92.98-6.11.83c-4.88-.33-11.47-1.87-17.38-6.97Z"/>
      <path class="cls-1" d="M31.63,69.47c-.69,0-1.38-.03-2.04-.08-4.98-.34-12.3-1.92-18.85-7.57h0c-1.23-1.06-1.89-2.59-1.81-4.2.08-1.6.87-3.05,2.18-3.99,4.25-3.03,11.96-5.05,19.25-5.05.08,0,.16,0,.24,0,1.99.01,4.15.71,5.62,1.82,4.43,3.33,4.56,8.95,4.4,11.21-.09,1.36-.6,4.72-3.38,6.53-1.59,1.04-3.62,1.31-5.61,1.31ZM14.01,58.09c5.5,4.74,11.69,6.08,15.91,6.36.88.06,3.55.24,4.57-.43.6-.39,1.06-1.48,1.14-2.72.08-1.14.12-5-2.44-6.93-.52-.39-1.57-.81-2.64-.82-.08,0-.15,0-.23,0-7.24,0-13.52,2.13-16.32,4.12-.03.02-.09.07-.1.19,0,.09.03.17.1.23h0Z"/>
    </g>
    <ellipse class="cls-1" cx="56.08" cy="53.76" rx="8.87" ry="4.5" transform="translate(-12.37 90.49) rotate(-72.01)"/>
    <ellipse class="cls-1" cx="24.59" cy="39.4" rx="7.9" ry="4.01" transform="translate(-18.57 56.57) rotate(-79.73)"/>
    <path class="cls-1" d="M112.54,48.45c-.15,0-.3-.02-.45-.05-1.07-.25-1.74-1.31-1.49-2.38,2.77-11.87-4.94-17.68-5.27-17.92-.89-.65-1.08-1.89-.43-2.77.65-.88,1.89-1.08,2.78-.44.42.3,10.21,7.51,6.82,22.03-.21.92-1.04,1.54-1.94,1.54Z"/>
    <path class="cls-1" d="M119.8,44.92c-.11,0-.21,0-.32-.03-1.09-.17-1.83-1.19-1.66-2.27,1.37-8.51-2.41-12.74-2.57-12.91-.74-.8-.69-2.06.11-2.8.8-.74,2.05-.71,2.8.09.22.23,5.29,5.71,3.6,16.25-.16.98-1,1.67-1.97,1.67Z"/>
  </g>
</svg>