<?xml version="1.0" encoding="UTF-8"?>
<svg id="_레이어_2" data-name="레이어 2" xmlns="http://www.w3.org/2000/svg" viewBox="0 0 1024 768">
  <defs>
    <style>
      .cls-1 {
        fill: #3a4c1e;
      }

      .cls-1, .cls-2, .cls-3, .cls-4, .cls-5, .cls-6, .cls-7, .cls-8, .cls-9, .cls-10 {
        stroke-width: 9px;
      }

      .cls-1, .cls-2, .cls-5, .cls-6, .cls-7, .cls-8, .cls-10 {
        stroke-linejoin: round;
      }

      .cls-1, .cls-3, .cls-5, .cls-8, .cls-9, .cls-10 {
        stroke: #291d04;
      }

      .cls-1, .cls-5, .cls-6, .cls-7, .cls-8, .cls-10 {
        stroke-linecap: round;
      }

      .cls-2, .cls-4, .cls-6 {
        fill: #fff1e1;
      }

      .cls-2, .cls-4, .cls-6, .cls-7 {
        stroke: #281b05;
      }

      .cls-11 {
        opacity: .75;
      }

      .cls-11, .cls-12 {
        fill: #291d04;
      }

      .cls-3 {
        fill: #cc5858;
      }

      .cls-3, .cls-4, .cls-9 {
        stroke-miterlimit: 10;
      }

      .cls-5 {
        fill: #658237;
      }

      .cls-13 {
        fill: #e56a73;
      }

      .cls-14 {
        fill: #291c07;
      }

      .cls-15 {
        fill: #281b05;
      }

      .cls-16 {
        fill: #f93;
      }

      .cls-7, .cls-8 {
        fill: none;
      }

      .cls-17 {
        fill: #ffc931;
      }

      .cls-18 {
        fill: #8f9347;
      }

      .cls-9 {
        fill: #e05c5c;
      }

      .cls-10 {
        fill: #4d6829;
      }
    </style>
  </defs>
  <g id="_악어새" data-name="악어새">
    <g>
      <path class="cls-17" d="M155.1,362.12l-17.9,2.75s-2.06,9.29,3.1,12.73l20.65-10.67-5.85-4.82Z"/>
      <path class="cls-14" d="M140.3,380.11c-.49,0-.97-.14-1.39-.42-6.51-4.34-4.25-14.91-4.15-15.36.22-1.01,1.04-1.77,2.06-1.93l17.9-2.75c.71-.11,1.42.09,1.97.54l5.85,4.82c.65.53.99,1.36.9,2.19s-.59,1.57-1.34,1.96l-20.65,10.67c-.36.19-.75.28-1.15.28ZM139.39,367.07c-.24,2.25-.17,5.56,1.31,7.52l15.73-8.13-2.06-1.7-14.98,2.31Z"/>
    </g>
    <g>
      <path class="cls-17" d="M164.21,372.26l-5.56,17.23s-9.5.56-12.08-5.08l13.82-18.69,3.83,6.54Z"/>
      <path class="cls-14" d="M157.95,392.01c-2.68,0-10.89-.51-13.66-6.56-.38-.83-.28-1.79.26-2.52l13.82-18.69c.5-.68,1.31-1.07,2.14-1.01.84.04,1.6.51,2.02,1.23l3.83,6.54c.36.61.44,1.35.22,2.03l-5.56,17.23c-.32.98-1.2,1.67-2.23,1.73-.07,0-.37.02-.84.02ZM149.61,384.49c1.7,1.78,4.95,2.36,7.22,2.49l4.66-14.43-1.35-2.3-10.53,14.24Z"/>
    </g>
    <g>
      <path class="cls-17" d="M222.21,330.81s45.08-2.06,6.19,21.68"/>
      <path class="cls-14" d="M228.41,354.99c-.84,0-1.67-.43-2.14-1.2-.72-1.18-.35-2.72.83-3.44,15.28-9.33,14.69-12.99,14.57-13.37-.65-2.12-8.76-4.16-19.35-3.68-1.37.07-2.55-1-2.61-2.38-.06-1.38,1-2.55,2.38-2.61,5.12-.24,22.03-.41,24.36,7.21,1.58,5.17-3.58,11.06-16.75,19.1-.41.25-.86.37-1.3.37Z"/>
    </g>
    <g>
      <circle class="cls-17" cx="190.11" cy="348.65" r="43.88"/>
      <path class="cls-14" d="M190.11,395.03c-25.57,0-46.38-20.8-46.38-46.38s20.8-46.38,46.38-46.38,46.38,20.8,46.38,46.38-20.8,46.38-46.38,46.38ZM190.11,307.28c-22.81,0-41.38,18.56-41.38,41.38s18.56,41.38,41.38,41.38,41.38-18.56,41.38-41.38-18.56-41.38-41.38-41.38Z"/>
    </g>
    <g>
      <path class="cls-17" d="M161.39,358.22s-6.77,29.26,18.97,7.6"/>
      <path class="cls-14" d="M165.85,376.32c-1.4,0-2.65-.34-3.76-1.03-1.05-.65-6.16-4.53-3.13-17.64.31-1.34,1.65-2.18,3-1.87,1.34.31,2.18,1.65,1.87,3h0c-.99,4.31-1.24,10.96.87,12.25.54.33,3.75,1.54,14.06-7.13,1.06-.89,2.63-.75,3.52.3.89,1.06.75,2.63-.3,3.52-6.87,5.78-12.12,8.6-16.12,8.6Z"/>
    </g>
    <g>
      <path class="cls-16" d="M234.45,362.35c1.35-1.17,1.27-3.3-.18-4.34-3.68-2.64-10.84-4.67-18.05-4.62-1.59.01-3.18.6-4.14,1.33-3,2.27-3.62,6.28-3.43,9.15.11,1.66.74,3.66,2.26,4.66s3.93.99,6.12.84c4.89-.33,11.5-1.89,17.41-7.02Z"/>
      <path class="cls-14" d="M215.17,371.94c-2,0-4.03-.27-5.63-1.32-2.78-1.83-3.29-5.22-3.39-6.59-.15-2.28-.02-7.95,4.41-11.3,1.48-1.12,3.64-1.82,5.63-1.84.08,0,.16,0,.24,0,7.3,0,15.02,2.04,19.28,5.09,1.31.94,2.11,2.41,2.18,4.02.08,1.62-.59,3.17-1.82,4.24h0c-6.56,5.69-13.89,7.29-18.88,7.63-.66.04-1.35.08-2.04.08ZM216.46,355.89c-.08,0-.15,0-.23,0-1.08,0-2.13.43-2.65.83-2.56,1.94-2.51,5.84-2.44,6.99.08,1.25.54,2.35,1.14,2.74,1.03.68,3.7.49,4.58.44,4.23-.29,10.43-1.63,15.94-6.42h0c.07-.06.1-.14.1-.23,0-.12-.07-.17-.1-.19-2.8-2.01-9.1-4.15-16.35-4.15Z"/>
    </g>
    <ellipse class="cls-14" cx="190.67" cy="356.1" rx="4.51" ry="8.94" transform="translate(-99.79 75.4) rotate(-17.81)"/>
    <ellipse class="cls-14" cx="222.21" cy="341.62" rx="4.02" ry="7.97" transform="translate(-56.82 44.59) rotate(-10.17)"/>
    <path class="cls-14" d="M134.1,350.74c-.91,0-1.73-.62-1.95-1.55-3.4-14.64,6.41-21.91,6.83-22.21.9-.65,2.15-.44,2.79.45.64.89.44,2.14-.45,2.79-.35.26-8.05,6.11-5.28,18.06.25,1.08-.42,2.15-1.5,2.4-.15.04-.3.05-.45.05Z"/>
    <path class="cls-14" d="M126.83,347.19c-.97,0-1.82-.7-1.97-1.68-1.7-10.63,3.39-16.15,3.6-16.38.76-.8,2.02-.84,2.83-.08.8.75.84,2.01.09,2.82-.19.2-3.94,4.47-2.57,13.02.17,1.09-.57,2.12-1.66,2.29-.11.02-.21.03-.32.03Z"/>
  </g>
  <g id="_악어1" data-name="악어1">
    <g id="_몸" data-name="몸">
      <path id="_몸통" data-name="몸통" class="cls-10" d="M1025.4,690.05s-93.07,27.26-166.49,20.65c-73.42-6.61-112.19-15.69-136.94-37.17s168.29-189.98,168.29-189.98c0,0,10.43-50.39,135.15,10.74"/>
      <path class="cls-5" d="M902.14,682.75l10.87,6.21v15.68s-110.76,28-201.05-36.59c-90.28-64.59,98.64-65.83,98.64-65.83l44.22,33.68"/>
    </g>
    <g id="_발" data-name="발">
      <path class="cls-10" d="M939.36,621.49s81.22,65.8-10.74,110.13c-23.2,10.94-37.18,20.84-41.94,24.44-.97.73-2.35.3-2.74-.85-1.6-4.79-3.94-16.21,5.58-25.52,0,0-23.33,11.08-34.02,20.58-1.07.96-2.77.31-2.94-1.11-.85-6.9-.58-22.66,17.14-31.31l-31.92,17.48c-1.23.68-2.71-.34-2.52-1.73.88-6.51,4.78-21.37,22.05-30.89,23.95-13.22,44.05-30.29,60.85-29.18"/>
      <line class="cls-10" x1="896.16" y1="679.64" x2="879.07" y2="656.46"/>
    </g>
    <g id="_상관" data-name="상관">
      <path class="cls-10" d="M661.76,314.79c1.1.67,9.36-38.97,38.27-39.53,28.91-.55,40.2,31.94,40.2,31.94"/>
      <path class="cls-1" d="M861.72,385.6s46.94,2.68,49.21,15.69-3.79,28.2-14.11,39.5"/>
      <path class="cls-1" d="M880.72,429.38s55.89,9.22,61.95,16.52c7.49,9.02,6.19,21.89-24.78,53.28"/>
      <path class="cls-10" d="M903.87,593.61s51.12-71.59,6.52-149.78c-14.22-26.98-33.59-34.14-39.1-57.82-5.51-23.68,4.41-31.94-32.49-44.6-36.89-12.67-83.7-40.75-83.7-40.75,0,0-39.65-13.22-47.36,7.16s-128.85-44.6-171.8-72.69c-42.95-28.08-45.15-11.56-45.15-11.56,0,0-8.81-17.62-28.08-24.23-31.94-7.16-79.29,50.66-44.05,78.19l229.07,161.89-5.51,172.91s10.46,68.83,97.47,70.48c87,1.65,121.7-58.37,121.7-58.37"/>
      <path class="cls-10" d="M478.74,226.33s27.88-36.96,54.1-16.11c23.54,16.31,23.33,34.07,17.76,43.16"/>
      <path class="cls-10" d="M728.94,314.36s18.17-51.49,74.06-32.76c41.02,18.45,31.94,70.48,31.94,70.48"/>
      <ellipse class="cls-4" cx="782.1" cy="337.63" rx="37.71" ry="41.99"/>
      <ellipse class="cls-15" cx="775.78" cy="338.06" rx="23.66" ry="16.62" transform="translate(358.6 1074.32) rotate(-84.01)"/>
      <ellipse class="cls-15" cx="439.43" cy="226.8" rx="8.4" ry="5.72" transform="translate(61.8 546.07) rotate(-67.51)"/>
      <ellipse class="cls-15" cx="514.85" cy="231.37" rx="14.76" ry="9.68" transform="translate(-46.75 174.75) rotate(-18.44)"/>
    </g>
    <g id="_입안" data-name="입안">
      <path class="cls-3" d="M862.32,508.66s-6.06-72.09-76.69-85.72c-10.72-.97-15.26-.94-21.59-1.52-4.4-.4-9.66-1.09-18.47-2.61-21.48-3.72-154.53-87.55-180.93-103.25-26.39-15.69-127.99-84.25-148.64-39.65,0,3.51,26.23,11.15,32.42,23.13,6.19,11.98,102.08,106.07,126.58,116.81,24.5,10.74,31.66,71.48-24.36,113.73-56.02,42.25-128.49,76.69-128.49,76.69l-11.24,17.59s-6.13,23.91,11.99,31.02c18.13,7.1,102.16,36.34,301.34-79.73,51.75-40.98,109.58-80.91,138.07-66.48Z"/>
      <path class="cls-9" d="M862.32,508.66c2.4,44.99-101.67,61.23-101.67,61.23,0,0,57.82-88.47-3.3-149.59,0,0,35.52-2.67,61.95,14.13,9.91,4.96,40.63,29.24,43.03,74.23Z"/>
      <path class="cls-13" d="M745.62,560.04s-58.18-36.56-103.61-13.98c0,0-57.27-15.69-88.38,18.72-31.11,34.42-36.1,38.13-43.65,54.8-7.56,16.67-7.01,41.84-7.01,41.84,0,0,121.97-29.74,160.24-49.56,38.27-19.82,82.41-51.82,82.41-51.82Z"/>
      <path class="cls-8" d="M781.19,514.05s-84.46-51.88-148.68,40.1"/>
      <path class="cls-8" d="M490.45,613.17s41.13-14.74,57.47-44.19c16.35-29.45,77.81-102.5,169.93-69.21"/>
      <path class="cls-7" d="M625.64,413.18s-22.65,16.99-19.82,59.7c2.83,42.71-4.71,41.76-4.71,41.76"/>
      <path class="cls-11" d="M770.59,506.48s-.01-65.8-73.55-68.49c-73.54-2.68-69.62,60.09-69.62,60.09,0,0,18.79-13.84,77.64-5.99,58.85,7.85,65.53,14.39,65.53,14.39Z"/>
      <path class="cls-12" d="M770.59,506.48s4.54-20.52-13.63-38.41c-9.09-6.4-48.98-3.21-59.93,23.84l18.14,8.09s20.63-4.37,55.41,6.48Z"/>
    </g>
    <g id="_하관" data-name="하관">
      <path class="cls-5" d="M883.88,524.58s-23.13-33.87-70.21-11.56c-47.08,22.3-90.03,81.77-217.22,124.72-127.18,42.95-167.6,25.05-180.91,11.29-15.42-20.65.83-41.02.83-41.02,0,0-57.82,31.11-12.39,71.64,40.82,36.42,111.51,16.75,124.72,15.09s97.47-26.43,156.11-33.87c58.64-7.43,122.25-25.61,122.25-25.61"/>
      <path class="cls-18" d="M517.25,662.96c22.63-3.96,49.52-11.47,83.11-22.92,127.13-43.33,169.27-102.24,216.35-124.07,47.08-21.83,64.7,11.72,68.01,16.31s21.19,83.38-79.03,99.95c0,0-59.88,16.95-118.53,24.23s-142.96,32.56-156.18,34.18c0,0-9.81-10.22-13.73-27.67Z"/>
    </g>
    <g id="_이빨" data-name="이빨">
      <g id="_이빨-2" data-name="이빨">
        <path class="cls-4" d="M434.99,626.37c-2.9,3.48-10.47,10.42-22.96,7.15-2.18-.57-3.71-2.51-3.83-4.75-.49-9.16,2.57-31.96,9.63-41.23,2.07-2.72,6.14-2.77,8.24-.06,3.5,4.52,7.67,14.6,10.05,35.02.16,1.39-.23,2.8-1.13,3.88Z"/>
        <path class="cls-4" d="M475.52,599.51c-2.9,3.48-10.47,10.42-22.96,7.15-2.18-.57-3.71-2.51-3.83-4.75-.49-9.16,2.57-31.96,9.63-41.23,2.07-2.72,6.14-2.77,8.24-.06,3.5,4.52,7.67,14.6,10.05,35.02.16,1.39-.23,2.8-1.13,3.88Z"/>
        <path class="cls-4" d="M521.36,575.06c-2.9,3.48-10.47,10.42-22.96,7.15-2.18-.57-3.71-2.51-3.83-4.75-.49-9.16,2.57-31.96,9.63-41.23,2.07-2.72,6.14-2.77,8.24-.06,3.5,4.52,7.67,14.6,10.05,35.02.16,1.39-.23,2.8-1.13,3.88Z"/>
        <path class="cls-4" d="M563.48,546.15c-2.9,3.48-10.47,10.42-22.96,7.15-2.18-.57-3.71-2.51-3.83-4.75-.49-9.16,2.57-31.96,9.63-41.23,2.07-2.72,6.14-2.77,8.24-.06,3.5,4.52,7.67,14.6,10.05,35.02.16,1.39-.23,2.8-1.13,3.88Z"/>
        <path class="cls-4" d="M474.07,664.17c-3.17.74-23.12-1.16-28.91-1.65-6.26-.54,7.43-45.43,14.45-45.43s19.98,45.79,14.45,47.08Z"/>
        <path class="cls-4" d="M498.98,661.88c3.5-.14,22.94-3.57,28.63-4.75,5.99-1.24-7.32-40.04-14.34-40.04s-19.97,45.02-14.29,44.79Z"/>
        <path class="cls-4" d="M568.3,646.14c3.17.74,22.23-7.93,28.81-9.81,6.04-1.72-7.42-40.16-14.44-40.16s-19.89,48.68-14.36,49.97Z"/>
        <path class="cls-4" d="M614.76,628.54c3.17.74,21.75-9.05,28.32-10.93,6.04-1.72-7.42-40.16-14.44-40.16s-19.41,49.8-13.88,51.09Z"/>
        <path class="cls-4" d="M664.59,606.23c3.17.74,23.57-12.44,30.15-14.32,6.04-1.72-9.25-36.77-16.27-36.77s-19.41,49.8-13.88,51.09Z"/>
        <path class="cls-4" d="M710.47,582.04c3.17.74,21.51-14.38,27.67-17.35,5.78-2.79-8.04-35.12-15.06-35.12s-18.13,51.17-12.61,52.46Z"/>
      </g>
      <g id="_이빨2" data-name="이빨2">
        <path class="cls-6" d="M457.96,299.19s-8.17,58.11,6.4,55.13c10.12-2.06,20.03-26.12,20.03-26.12"/>
        <path class="cls-6" d="M504.84,340.54s-8.17,58.11,6.4,55.13c10.12-2.06,20.03-26.12,20.03-26.12"/>
        <path class="cls-6" d="M549.36,373.97s-8.17,58.11,6.4,55.13c10.12-2.06,20.03-26.12,20.03-26.12"/>
      </g>
      <g id="_이빨1" data-name="이빨1">
        <path class="cls-2" d="M418.38,271.9s-5.16,45.02,7.02,45.02,29.01-54.82,29.01-54.82c0,0-27.88-5.58-36.03,9.81Z"/>
        <path class="cls-2" d="M469.47,268.25s-3.87,50.59,8.31,50.59,24.78-39.01,24.78-39.01c0,0-24.99-11.99-33.09-11.58Z"/>
        <path class="cls-2" d="M517.22,287.87s-5.78,47.77,6.4,47.77,22.53-31.65,22.53-31.65c0,0-15.15-11.26-28.94-16.12Z"/>
        <path class="cls-2" d="M562.86,314.71s-5.88,49.63,6.3,49.63,22.61-32.42,22.61-32.42c0,0-24.78-14.73-28.91-17.21Z"/>
        <path class="cls-2" d="M611.04,343.34s-5.88,49.63,6.3,49.63,22.61-32.42,22.61-32.42c0,0-24.78-14.73-28.91-17.21Z"/>
        <path class="cls-2" d="M655.99,372.77s-7.05,45.02,5.13,45.02,20.75-29.52,20.75-29.52c0,0-21.75-13.02-25.88-15.5Z"/>
        <path class="cls-2" d="M700.18,398.46s-7.6,39.45,4.58,39.45,19.65-26.45,19.65-26.45c0,0-20.1-10.51-24.23-13Z"/>
        <path class="cls-2" d="M739.81,416.81s-4.56,31.28,7.62,31.28,20.13-27.95,20.13-27.95c0,0-23.62-.85-27.75-3.34Z"/>
      </g>
    </g>
    <ellipse class="cls-15" cx="861.54" cy="426.07" rx="9.23" ry="15.52" transform="translate(-74.31 207.03) rotate(-13.14)"/>
    <ellipse class="cls-15" cx="885.94" cy="467.43" rx="7.64" ry="12.85" transform="translate(-112.27 384.02) rotate(-23.04)"/>
    <ellipse class="cls-15" cx="959" cy="500.6" rx="9.23" ry="15.52" transform="translate(169.29 1239.95) rotate(-70.68)"/>
    <ellipse class="cls-15" cx="1006.5" cy="506.48" rx="9.23" ry="15.52" transform="translate(195.52 1288.71) rotate(-70.68)"/>
    <ellipse class="cls-15" cx="970.14" cy="539.34" rx="7.64" ry="14.39" transform="translate(107.14 1237.39) rotate(-68.04)"/>
  </g>
</svg>