<?xml version="1.0" encoding="UTF-8"?>
<svg id="_레이어_2" data-name="레이어 2" xmlns="http://www.w3.org/2000/svg" viewBox="0 0 59.87 75.6">
  <defs>
    <style>
      .cls-1 {
        fill: #281b05;
      }

      .cls-2 {
        fill: #fff1e1;
      }
    </style>
  </defs>
  <path class="cls-2" d="M55.18,16.13c-.8-6.41-7.68-13.31-26.6-11.06S5.79,14.37,4.83,19.66c-2.08,8.82,10.26,51.31,25.17,51.31s25.98-34.79,25.17-54.84Z"/>
  <path class="cls-1" d="M30.01,75.6c-4.91,0-9.63-2.82-14.03-8.38C5.46,53.93-1.53,27.04.29,18.73,2.21,8.42,11.29,2.45,28.03.46c21.69-2.58,30.63,6.11,31.75,15.09l.03.39c.82,20.53-8.12,44.19-16.98,53.42-3.98,4.14-8.3,6.24-12.83,6.24ZM35.13,9.31c-2.01,0-4.04.13-6,.36-18.16,2.15-19.34,8.67-19.73,10.82l-.05.24c-.42,1.79.25,8.51,3.08,17.81,2.9,9.54,6.85,17.9,10.83,22.94,2.48,3.13,4.88,4.86,6.76,4.86s3.98-1.14,6.14-3.39c7.34-7.64,15.03-29.06,14.41-46.4-.82-5.38-7.91-7.23-15.43-7.23Z"/>
</svg>