<?xml version="1.0" encoding="UTF-8"?>
<svg id="_레이어_2" data-name="레이어 2" xmlns="http://www.w3.org/2000/svg" viewBox="0 0 59.87 75.6">
  <defs>
    <style>
      .cls-1 {
        fill: #281b05;
      }

      .cls-2 {
        fill: #291d04;
      }

      .cls-3 {
        fill: #ed8c35;
        stroke: #281b05;
        stroke-miterlimit: 10;
        stroke-width: 9px;
      }
    </style>
  </defs>
  <g>
    <path class="cls-3" d="M55.18,16.13c-.8-6.41-7.68-13.31-26.6-11.06S5.79,14.37,4.83,19.66c-2.08,8.82,10.26,51.31,25.17,51.31s25.98-34.79,25.17-54.84Z"/>
    <path class="cls-1" d="M30.01,75.6c-4.91,0-9.63-2.82-14.03-8.38C5.46,53.93-1.53,27.04.29,18.73,2.21,8.42,11.29,2.45,28.03.46c21.69-2.58,30.63,6.11,31.75,15.09l.03.39c.82,20.53-8.12,44.19-16.98,53.42-3.98,4.14-8.3,6.24-12.83,6.24ZM35.13,9.31c-2.01,0-4.04.13-6,.36-18.16,2.15-19.34,8.67-19.73,10.82l-.05.24c-.42,1.79.25,8.51,3.08,17.81,2.9,9.54,6.85,17.9,10.83,22.94,2.48,3.13,4.88,4.86,6.76,4.86s3.98-1.14,6.14-3.39c7.34-7.64,15.03-29.06,14.41-46.4-.82-5.38-7.91-7.23-15.43-7.23Z"/>
  </g>
  <g>
    <path class="cls-2" d="M24.02,22.74l-2.97-.87c-1.42-.41-1.86-2.21-.79-3.23l2.24-2.14c1.07-1.02,2.85-.51,3.2.93l.74,3.01c.35,1.44-.98,2.72-2.41,2.3Z"/>
    <path class="cls-2" d="M35.44,54.89l-1.66-.48c-1.42-.41-1.86-2.21-.79-3.23l1.25-1.19c1.07-1.02,2.84-.5,3.19.93l.41,1.68c.35,1.44-.98,2.71-2.4,2.3Z"/>
    <path class="cls-2" d="M28.17,39.96l-2.76,3.33c-.97,1.17-2.84.85-3.37-.57l-1.51-4.05c-.53-1.42.68-2.89,2.18-2.63l4.26.72c1.5.25,2.16,2.03,1.19,3.2Z"/>
    <path class="cls-2" d="M34.29,28.74l2.57-6.34c.65-1.59,2.77-1.89,3.83-.54l4.21,5.4c1.06,1.36.25,3.35-1.45,3.59l-6.78.95c-1.7.24-3.03-1.46-2.38-3.05Z"/>
  </g>
</svg>