<?xml version="1.0" encoding="UTF-8"?>
<svg id="_레이어_2" data-name="레이어 2" xmlns="http://www.w3.org/2000/svg" viewBox="0 0 65.24 80.3">
  <defs>
    <style>
      .cls-1 {
        fill: #281b05;
      }

      .cls-2 {
        fill: #ed8c35;
      }

      .cls-3 {
        fill: #291d04;
      }
    </style>
  </defs>
  <g>
    <path class="cls-2" d="M60.55,15.01c-.89-7.09-7.98-12.26-28.91-9.78S5.93,13.06,4.86,18.91c-2.31,9.75,11.35,56.75,27.84,56.75s28.73-38.48,27.84-60.65Z"/>
    <path class="cls-1" d="M32.7,80.3c-5.27,0-10.36-3.05-15.13-9.08C6.01,56.6-1.69,27.07.32,17.98,2.16,8.16,11.38,2.97,31.09.63c14.53-1.73,32.24-.73,34.06,13.81l.03.39c.9,22.58-8.91,48.59-18.64,58.72-4.31,4.48-8.96,6.75-13.83,6.75ZM41.34,9.25c-3.23,0-6.48.28-9.15.59-21.42,2.54-22.39,7.89-22.76,9.9l-.05.24c-1.29,5.44,5.1,32.37,15.47,45.48,2.84,3.59,5.63,5.56,7.86,5.56s4.66-1.31,7.15-3.9c9.92-10.33,16.64-35.73,16.07-51.7-.76-4.89-7.63-6.17-14.58-6.17Z"/>
  </g>
  <g>
    <path class="cls-3" d="M25.48,22.92l-2.97-.87c-1.42-.41-1.86-2.21-.79-3.23l2.24-2.14c1.07-1.02,2.85-.51,3.2.93l.74,3.01c.35,1.44-.98,2.72-2.41,2.3Z"/>
    <path class="cls-3" d="M36.9,55.07l-1.66-.48c-1.42-.41-1.86-2.21-.79-3.23l1.25-1.19c1.07-1.02,2.84-.5,3.19.93l.41,1.68c.35,1.44-.98,2.71-2.4,2.3Z"/>
    <path class="cls-3" d="M29.63,40.14l-2.76,3.33c-.97,1.17-2.84.85-3.37-.57l-1.51-4.05c-.53-1.42.68-2.89,2.18-2.63l4.26.72c1.5.25,2.16,2.03,1.19,3.2Z"/>
    <path class="cls-3" d="M35.75,28.92l2.57-6.34c.65-1.59,2.77-1.89,3.83-.54l4.21,5.4c1.06,1.36.25,3.35-1.45,3.59l-6.78.95c-1.7.24-3.03-1.46-2.38-3.05Z"/>
  </g>
</svg>