<?xml version="1.0" encoding="UTF-8"?>
<svg id="_레이어_2" data-name="레이어 2" xmlns="http://www.w3.org/2000/svg" viewBox="0 0 65.24 80.3">
  <defs>
    <style>
      .cls-1 {
        fill: #281b05;
      }

      .cls-2 {
        fill: #fff1e1;
      }
    </style>
  </defs>
  <path class="cls-2" d="M60.55,15.01c-.89-7.09-7.98-12.26-28.91-9.78S5.93,13.06,4.86,18.91c-2.31,9.75,11.35,56.75,27.84,56.75s28.73-38.48,27.84-60.65Z"/>
  <path class="cls-1" d="M32.7,80.3c-5.27,0-10.36-3.05-15.13-9.08C6.01,56.6-1.69,27.07.32,17.98,2.16,8.16,11.38,2.97,31.09.63c14.53-1.73,32.24-.73,34.06,13.81l.03.39c.9,22.58-8.91,48.59-18.64,58.72-4.31,4.48-8.96,6.75-13.83,6.75ZM41.34,9.25c-3.23,0-6.48.28-9.15.59-21.42,2.54-22.39,7.89-22.76,9.9l-.05.24c-1.29,5.44,5.1,32.37,15.47,45.48,2.84,3.59,5.63,5.56,7.86,5.56s4.66-1.31,7.15-3.9c9.92-10.33,16.64-35.73,16.07-51.7-.76-4.89-7.63-6.17-14.58-6.17Z"/>
</svg>