<?xml version="1.0" encoding="UTF-8"?>
<svg id="_레이어_2" data-name="레이어 2" xmlns="http://www.w3.org/2000/svg" viewBox="0 0 65.24 80.3">
  <defs>
    <style>
      .cls-1 {
        fill: #281b05;
      }

      .cls-2 {
        fill: #ed8c35;
      }

      .cls-3 {
        fill: #291d04;
      }
    </style>
  </defs>
  <g>
    <path class="cls-2" d="M4.69,15.01c.89-7.09,7.98-12.26,28.91-9.78s25.71,7.83,26.77,13.68c2.31,9.75-11.35,56.75-27.84,56.75S3.81,37.18,4.69,15.01Z"/>
    <path class="cls-1" d="M32.53,80.3c-4.87,0-9.53-2.27-13.83-6.75C8.97,63.41-.84,37.4.06,14.82l.03-.39C1.91-.1,19.61-1.1,34.15.63c19.71,2.34,28.93,7.53,30.77,17.35,2.01,9.09-5.69,38.62-17.25,53.24-4.77,6.03-9.86,9.08-15.13,9.08ZM9.32,15.42c-.57,15.97,6.15,41.38,16.07,51.7,2.49,2.59,4.89,3.9,7.15,3.9s5.02-1.97,7.86-5.56c10.37-13.11,16.76-40.05,15.47-45.48l-.05-.24c-.37-2.01-1.34-7.36-22.76-9.9-8.41-1-22.62-1.59-23.74,5.58Z"/>
  </g>
  <g>
    <path class="cls-3" d="M25.52,20.31l-2.97-.87c-1.42-.41-1.86-2.21-.79-3.23l2.24-2.14c1.07-1.02,2.85-.51,3.2.93l.74,3.01c.35,1.44-.98,2.72-2.41,2.3Z"/>
    <path class="cls-3" d="M36.94,52.45l-1.66-.48c-1.42-.41-1.86-2.21-.79-3.23l1.25-1.19c1.07-1.02,2.84-.5,3.19.93l.41,1.68c.35,1.44-.98,2.71-2.4,2.3Z"/>
    <path class="cls-3" d="M29.67,37.52l-2.76,3.33c-.97,1.17-2.84.85-3.37-.57l-1.51-4.05c-.53-1.42.68-2.89,2.18-2.63l4.26.72c1.5.25,2.16,2.03,1.19,3.2Z"/>
    <path class="cls-3" d="M35.79,26.3l2.57-6.34c.65-1.59,2.77-1.89,3.83-.54l4.21,5.4c1.06,1.36.25,3.35-1.45,3.59l-6.78.95c-1.7.24-3.03-1.46-2.38-3.05Z"/>
  </g>
</svg>