<?xml version="1.0" encoding="UTF-8"?>
<svg id="_레이어_2" data-name="레이어 2" xmlns="http://www.w3.org/2000/svg" viewBox="0 0 65.24 80.3">
  <defs>
    <style>
      .cls-1 {
        fill: #281b05;
      }

      .cls-2 {
        fill: #fff1e1;
      }
    </style>
  </defs>
  <path class="cls-2" d="M4.69,15.01c.89-7.09,7.98-12.26,28.91-9.78s25.71,7.83,26.77,13.68c2.31,9.75-11.35,56.75-27.84,56.75S3.81,37.18,4.69,15.01Z"/>
  <path class="cls-1" d="M32.53,80.3c-4.87,0-9.53-2.27-13.83-6.75C8.97,63.41-.84,37.4.06,14.82l.03-.39C1.91-.1,19.61-1.1,34.15.63c19.71,2.34,28.93,7.53,30.77,17.35,2.01,9.09-5.69,38.62-17.25,53.24-4.77,6.03-9.86,9.08-15.13,9.08ZM9.32,15.42c-.57,15.97,6.15,41.38,16.07,51.7,2.49,2.59,4.89,3.9,7.15,3.9s5.02-1.97,7.86-5.56c10.37-13.11,16.76-40.05,15.47-45.48l-.05-.24c-.37-2.01-1.34-7.36-22.76-9.9-8.41-1-22.62-1.59-23.74,5.58Z"/>
</svg>