<?xml version="1.0" encoding="UTF-8"?>
<svg id="_레이어_2" data-name="레이어 2" xmlns="http://www.w3.org/2000/svg" viewBox="0 0 59.87 76.03">
  <defs>
    <style>
      .cls-1 {
        fill: #281b05;
      }

      .cls-2 {
        fill: #ed8c35;
      }

      .cls-3 {
        fill: #291d04;
      }
    </style>
  </defs>
  <g>
    <path class="cls-2" d="M4.69,16.55c.8-6.41,8.39-13.74,27.31-11.5,18.92,2.24,22.08,9.73,23.04,15.03,2.08,8.82-10.26,51.31-25.17,51.31S3.88,36.59,4.69,16.55Z"/>
    <path class="cls-1" d="M29.86,76.03c-4.53,0-8.85-2.1-12.83-6.24C8.17,60.56-.77,36.89.05,16.37l.03-.39C.72,10.86,4.1,6.3,9.34,3.47,15.17.33,22.97-.68,32.54.45c16.43,1.95,25.03,7.89,27.04,18.7,1.82,8.32-5.17,35.21-15.69,48.5-4.4,5.56-9.12,8.38-14.03,8.38ZM9.31,16.96c-.62,17.34,7.07,38.76,14.41,46.4,2.16,2.25,4.23,3.39,6.14,3.39s4.28-1.73,6.76-4.86c3.98-5.03,7.93-13.39,10.83-22.94,2.83-9.3,3.5-16.01,3.08-17.81l-.05-.24c-.5-2.75-1.67-9.19-19.02-11.25-14.2-1.68-21.39,2.57-22.13,7.3Z"/>
  </g>
  <g>
    <path class="cls-3" d="M22.84,21.58l-2.97-.87c-1.42-.41-1.86-2.21-.79-3.23l2.24-2.14c1.07-1.02,2.85-.51,3.2.93l.74,3.01c.35,1.44-.98,2.72-2.41,2.3Z"/>
    <path class="cls-3" d="M34.26,53.73l-1.66-.48c-1.42-.41-1.86-2.21-.79-3.23l1.25-1.19c1.07-1.02,2.84-.5,3.19.93l.41,1.68c.35,1.44-.98,2.71-2.4,2.3Z"/>
    <path class="cls-3" d="M26.99,38.8l-2.76,3.33c-.97,1.17-2.84.85-3.37-.57l-1.51-4.05c-.53-1.42.68-2.89,2.18-2.63l4.26.72c1.5.25,2.16,2.03,1.19,3.2Z"/>
    <path class="cls-3" d="M33.11,27.58l2.57-6.34c.65-1.59,2.77-1.89,3.83-.54l4.21,5.4c1.06,1.36.25,3.35-1.45,3.59l-6.78.95c-1.7.24-3.03-1.46-2.38-3.05Z"/>
  </g>
</svg>