<?xml version="1.0" encoding="UTF-8"?>
<svg id="_레이어_2" data-name="레이어 2" xmlns="http://www.w3.org/2000/svg" viewBox="0 0 59.87 76.03">
  <defs>
    <style>
      .cls-1 {
        fill: #281b05;
      }

      .cls-2 {
        fill: #fff1e1;
      }
    </style>
  </defs>
  <path class="cls-2" d="M4.69,16.55c.8-6.41,8.39-13.74,27.31-11.5,18.92,2.24,22.08,9.73,23.04,15.03,2.08,8.82-10.26,51.31-25.17,51.31S3.88,36.59,4.69,16.55Z"/>
  <path class="cls-1" d="M29.86,76.03c-4.53,0-8.85-2.1-12.83-6.24C8.17,60.56-.77,36.89.05,16.37l.03-.39C.72,10.86,4.1,6.3,9.34,3.47,15.17.33,22.97-.68,32.54.45c16.43,1.95,25.03,7.89,27.04,18.7,1.82,8.32-5.17,35.21-15.69,48.5-4.4,5.56-9.12,8.38-14.03,8.38ZM9.31,16.96c-.62,17.34,7.07,38.76,14.41,46.4,2.16,2.25,4.23,3.39,6.14,3.39s4.28-1.73,6.76-4.86c3.98-5.03,7.93-13.39,10.83-22.94,2.83-9.3,3.5-16.01,3.08-17.81l-.05-.24c-.5-2.75-1.67-9.19-19.02-11.25-14.2-1.68-21.39,2.57-22.13,7.3Z"/>
</svg>