<?xml version="1.0" encoding="UTF-8"?>
<svg id="_레이어_2" data-name="레이어 2" xmlns="http://www.w3.org/2000/svg" viewBox="0 0 59.87 75.6">
  <defs>
    <style>
      .cls-1 {
        fill: #281b05;
      }

      .cls-2 {
        fill: #fff1e1;
      }
    </style>
  </defs>
  <path class="cls-2" d="M55.18,59.47c-.8,6.41-7.68,13.31-26.6,11.06s-22.79-9.3-23.75-14.59C2.75,47.13,15.09,4.64,30.01,4.64s25.98,34.79,25.17,54.84Z"/>
  <path class="cls-1" d="M35.39,75.6c-2.27,0-4.72-.15-7.35-.46-16.74-1.99-25.82-7.96-27.74-18.27C-1.53,48.56,5.46,21.67,15.98,8.38,20.37,2.82,25.1,0,30.01,0c4.53,0,8.85,2.1,12.83,6.24,8.86,9.22,17.8,32.89,16.98,53.42l-.03.39c-.99,7.89-8,15.55-24.4,15.55ZM30.01,9.28c-1.88,0-4.28,1.73-6.76,4.86-3.98,5.03-7.93,13.39-10.83,22.94-2.83,9.3-3.5,16.01-3.08,17.81l.05.24c.39,2.14,1.58,8.66,19.73,10.82,9.27,1.1,20.39-.05,21.43-6.86.62-17.34-7.07-38.76-14.41-46.4-2.16-2.25-4.23-3.39-6.14-3.39Z"/>
</svg>