<?xml version="1.0" encoding="UTF-8"?>
<svg id="_레이어_2" data-name="레이어 2" xmlns="http://www.w3.org/2000/svg" viewBox="0 0 65.24 80.3">
  <defs>
    <style>
      .cls-1 {
        fill: #281b05;
      }

      .cls-2 {
        fill: #fff1e1;
      }
    </style>
  </defs>
  <path class="cls-2" d="M60.55,65.29c-.89,7.09-7.98,12.26-28.91,9.78s-25.71-7.83-26.77-13.68C2.56,51.63,16.21,4.64,32.7,4.64s28.73,38.48,27.84,60.65Z"/>
  <path class="cls-1" d="M40.96,80.3c-3.31,0-6.66-.25-9.87-.63-19.71-2.34-28.93-7.53-30.77-17.35C-1.69,53.23,6.01,23.7,17.57,9.08,22.34,3.06,27.43,0,32.7,0c4.87,0,9.53,2.27,13.83,6.75,9.73,10.13,19.54,36.14,18.64,58.72l-.03.39c-1.42,11.33-12.49,14.43-24.19,14.43ZM32.7,9.28c-2.23,0-5.02,1.97-7.86,5.56-10.37,13.11-16.76,40.05-15.47,45.48l.05.24c.37,2.01,1.34,7.36,22.76,9.9,8.42,1,22.62,1.59,23.74-5.58.57-15.97-6.15-41.38-16.07-51.7-2.49-2.59-4.89-3.9-7.15-3.9Z"/>
</svg>