<?xml version="1.0" encoding="UTF-8"?>
<svg id="_레이어_2" data-name="레이어 2" xmlns="http://www.w3.org/2000/svg" viewBox="0 0 65.24 80.3">
  <defs>
    <style>
      .cls-1 {
        fill: #281b05;
      }

      .cls-2 {
        fill: #ed8c35;
      }

      .cls-3 {
        fill: #291d04;
      }
    </style>
  </defs>
  <g>
    <path class="cls-2" d="M4.69,65.29c.89,7.09,7.98,12.26,28.91,9.78s25.71-7.83,26.77-13.68c2.31-9.75-11.35-56.75-27.84-56.75S3.81,43.12,4.69,65.29Z"/>
    <path class="cls-1" d="M24.28,80.3c-11.7,0-22.77-3.1-24.19-14.43l-.03-.39C-.84,42.89,8.97,16.88,18.7,6.75,23.01,2.27,27.66,0,32.53,0c5.27,0,10.36,3.06,15.13,9.08,11.57,14.62,19.26,44.15,17.25,53.24-1.84,9.82-11.06,15.01-30.77,17.35-3.2.38-6.56.63-9.87.63ZM9.32,64.88c1.12,7.16,15.32,6.58,23.74,5.58,21.42-2.54,22.39-7.89,22.76-9.9l.05-.24c1.29-5.44-5.1-32.37-15.47-45.48-2.84-3.59-5.63-5.56-7.86-5.56s-4.66,1.31-7.15,3.9c-9.92,10.33-16.64,35.73-16.07,51.7Z"/>
  </g>
  <g>
    <path class="cls-3" d="M25.1,53.97l-2.97.87c-1.42.41-1.86,2.21-.79,3.23l2.24,2.14c1.07,1.02,2.85.51,3.2-.93l.74-3.01c.35-1.44-.98-2.72-2.41-2.3Z"/>
    <path class="cls-3" d="M36.52,21.82l-1.66.48c-1.42.41-1.86,2.21-.79,3.23l1.25,1.19c1.07,1.02,2.84.5,3.19-.93l.41-1.68c.35-1.44-.98-2.71-2.4-2.3Z"/>
    <path class="cls-3" d="M29.25,36.75l-2.76-3.33c-.97-1.17-2.84-.85-3.37.57l-1.51,4.05c-.53,1.42.68,2.89,2.18,2.63l4.26-.72c1.5-.25,2.16-2.03,1.19-3.2Z"/>
    <path class="cls-3" d="M35.37,47.97l2.57,6.34c.65,1.59,2.77,1.89,3.83.54l4.21-5.4c1.06-1.36.25-3.35-1.45-3.59l-6.78-.95c-1.7-.24-3.03,1.46-2.38,3.05Z"/>
  </g>
</svg>