<?xml version="1.0" encoding="UTF-8"?>
<svg id="_레이어_2" data-name="레이어 2" xmlns="http://www.w3.org/2000/svg" viewBox="0 0 65.24 80.3">
  <defs>
    <style>
      .cls-1 {
        fill: #281b05;
      }

      .cls-2 {
        fill: #fff1e1;
      }
    </style>
  </defs>
  <path class="cls-2" d="M4.69,65.29c.89,7.09,7.98,12.26,28.91,9.78s25.71-7.83,26.77-13.68c2.31-9.75-11.35-56.75-27.84-56.75S3.81,43.12,4.69,65.29Z"/>
  <path class="cls-1" d="M24.28,80.3c-11.7,0-22.77-3.1-24.19-14.43l-.03-.39C-.84,42.89,8.97,16.88,18.7,6.75,23.01,2.27,27.66,0,32.53,0c5.27,0,10.36,3.06,15.13,9.08,11.57,14.62,19.26,44.15,17.25,53.24-1.84,9.82-11.06,15.01-30.77,17.35-3.2.38-6.56.63-9.87.63ZM9.32,64.88c1.12,7.16,15.32,6.58,23.74,5.58,21.42-2.54,22.39-7.89,22.76-9.9l.05-.24c1.29-5.44-5.1-32.37-15.47-45.48-2.84-3.59-5.63-5.56-7.86-5.56s-4.66,1.31-7.15,3.9c-9.92,10.33-16.64,35.73-16.07,51.7Z"/>
</svg>