<?xml version="1.0" encoding="UTF-8"?>
<svg id="_레이어_2" data-name="레이어 2" xmlns="http://www.w3.org/2000/svg" viewBox="0 0 59.87 76.03">
  <defs>
    <style>
      .cls-1 {
        fill: #281b05;
      }

      .cls-2 {
        fill: #ed8c35;
      }

      .cls-3 {
        fill: #291d04;
      }
    </style>
  </defs>
  <g>
    <path class="cls-2" d="M4.69,59.47c.8,6.41,8.39,13.74,27.31,11.5,18.92-2.24,22.08-9.73,23.04-15.03,2.08-8.82-10.26-51.31-25.17-51.31S3.88,39.43,4.69,59.47Z"/>
    <path class="cls-1" d="M25.33,76.03c-6.35,0-11.7-1.16-15.99-3.48-5.24-2.83-8.62-7.39-9.26-12.5l-.03-.39C-.77,39.13,8.17,15.47,17.03,6.24,21.01,2.1,25.33,0,29.86,0c4.91,0,9.63,2.82,14.03,8.38,10.52,13.29,17.51,40.18,15.69,48.5-2.01,10.81-10.61,16.75-27.04,18.7-2.53.3-4.93.45-7.2.45ZM9.31,59.07c.74,4.73,7.94,8.99,22.13,7.3,17.35-2.06,18.52-8.5,19.02-11.25l.05-.24c.42-1.79-.25-8.51-3.08-17.81-2.9-9.54-6.85-17.91-10.83-22.94-2.48-3.13-4.88-4.86-6.76-4.86s-3.98,1.14-6.14,3.39c-7.34,7.64-15.03,29.06-14.41,46.4Z"/>
  </g>
  <g>
    <path class="cls-3" d="M22.5,51.48l-2.97.87c-1.42.41-1.86,2.21-.79,3.23l2.24,2.14c1.07,1.02,2.85.51,3.2-.93l.74-3.01c.35-1.44-.98-2.72-2.41-2.3Z"/>
    <path class="cls-3" d="M33.92,19.33l-1.66.48c-1.42.41-1.86,2.21-.79,3.23l1.25,1.19c1.07,1.02,2.84.5,3.19-.93l.41-1.68c.35-1.44-.98-2.71-2.4-2.3Z"/>
    <path class="cls-3" d="M26.65,34.26l-2.76-3.33c-.97-1.17-2.84-.85-3.37.57l-1.51,4.05c-.53,1.42.68,2.89,2.18,2.63l4.26-.72c1.5-.25,2.16-2.03,1.19-3.2Z"/>
    <path class="cls-3" d="M32.77,45.48l2.57,6.34c.65,1.59,2.77,1.89,3.83.54l4.21-5.4c1.06-1.36.25-3.35-1.45-3.59l-6.78-.95c-1.7-.24-3.03,1.46-2.38,3.05Z"/>
  </g>
</svg>