<?xml version="1.0" encoding="UTF-8"?>
<svg id="_레이어_2" data-name="레이어 2" xmlns="http://www.w3.org/2000/svg" viewBox="0 0 59.87 76.03">
  <defs>
    <style>
      .cls-1 {
        fill: #281b05;
      }

      .cls-2 {
        fill: #fff1e1;
      }
    </style>
  </defs>
  <path class="cls-2" d="M4.69,59.47c.8,6.41,8.39,13.74,27.31,11.5,18.92-2.24,22.08-9.73,23.04-15.03,2.08-8.82-10.26-51.31-25.17-51.31S3.88,39.43,4.69,59.47Z"/>
  <path class="cls-1" d="M25.33,76.03c-6.35,0-11.7-1.16-15.99-3.48-5.24-2.83-8.62-7.39-9.26-12.5l-.03-.39C-.77,39.13,8.17,15.47,17.03,6.24,21.01,2.1,25.33,0,29.86,0c4.91,0,9.63,2.82,14.03,8.38,10.52,13.29,17.51,40.18,15.69,48.5-2.01,10.81-10.61,16.75-27.04,18.7-2.53.3-4.93.45-7.2.45ZM9.31,59.07c.74,4.73,7.94,8.99,22.13,7.3,17.35-2.06,18.52-8.5,19.02-11.25l.05-.24c.42-1.79-.25-8.51-3.08-17.81-2.9-9.54-6.85-17.91-10.83-22.94-2.48-3.13-4.88-4.86-6.76-4.86s-3.98,1.14-6.14,3.39c-7.34,7.64-15.03,29.06-14.41,46.4Z"/>
</svg>