<?xml version="1.0" encoding="UTF-8"?>
<svg id="_레이어_2" data-name="레이어 2" xmlns="http://www.w3.org/2000/svg" viewBox="0 0 59.62 75.33">
  <defs>
    <style>
      .cls-1 {
        fill: #291d04;
      }

      .cls-2 {
        fill: #ed8c35;
        stroke: #281b05;
        stroke-miterlimit: 10;
        stroke-width: 9px;
      }
    </style>
  </defs>
  <g id="_악어2_충치" data-name="악어2 충치">
    <g>
      <path class="cls-2" d="M55.08,59.34c-.8,6.41-7.68,13.31-26.6,11.06s-22.79-9.3-23.75-14.59C2.65,46.99,14.99,4.5,29.9,4.5s25.98,34.79,25.17,54.84Z"/>
      <g>
        <path class="cls-1" d="M21.31,50.4l-2.97.87c-1.42.41-1.86,2.21-.79,3.23l2.24,2.14c1.07,1.02,2.85.51,3.2-.93l.74-3.01c.35-1.44-.98-2.72-2.41-2.3Z"/>
        <path class="cls-1" d="M32.73,18.26l-1.66.48c-1.42.41-1.86,2.21-.79,3.23l1.25,1.19c1.07,1.02,2.84.5,3.19-.93l.41-1.68c.35-1.44-.98-2.71-2.4-2.3Z"/>
        <path class="cls-1" d="M25.46,33.19l-2.76-3.33c-.97-1.17-2.84-.85-3.37.57l-1.51,4.05c-.53,1.42.68,2.89,2.18,2.63l4.26-.72c1.5-.25,2.16-2.03,1.19-3.2Z"/>
        <path class="cls-1" d="M31.58,44.41l2.57,6.34c.65,1.59,2.77,1.89,3.83.54l4.21-5.4c1.06-1.36.25-3.35-1.45-3.59l-6.78-.95c-1.7-.24-3.03,1.46-2.38,3.05Z"/>
      </g>
    </g>
  </g>
</svg>