<?xml version="1.0" encoding="UTF-8"?>
<svg id="_레이어_2" data-name="레이어 2" xmlns="http://www.w3.org/2000/svg" viewBox="0 0 509.3 125.01">
  <defs>
    <style>
      .cls-1 {
        fill: #281b05;
      }

      .cls-2 {
        fill: #ffc931;
      }

      .cls-3 {
        fill: #8c4f1f;
      }
    </style>
  </defs>
  <rect class="cls-1" x="0" y="0" width="509.3" height="125.01" rx="62.5" ry="62.5"/>
  <g id="again_" data-name="again?">
    <g>
      <path class="cls-3" d="M53.52,83.57c-2.42-4.84-3.63-12.45-3.63-22.83,0-9.24,1.7-16.1,5.11-20.59,3.41-4.49,8.74-6.74,16-6.74,6.31,0,11.04,2.26,14.19,6.78,3.15,4.52,4.73,11.05,4.73,19.59,0,11.27-1.47,19.4-4.4,24.36-3.89,6.75-9.52,10.13-16.91,10.13-6.37,0-11.4-3.57-15.1-10.7ZM61.22,46.26c-1.75,2.9-2.63,7.34-2.63,13.33,0,17.01,3.44,25.51,10.32,25.51,5.16,0,8.85-2.83,11.08-8.5,1.08-2.87,1.62-8.15,1.62-15.86,0-2.74-.11-5.08-.33-7.02-.22-1.94-.69-3.88-1.39-5.83-.7-1.94-1.8-3.42-3.3-4.44-1.5-1.02-3.42-1.53-5.78-1.53-4.65,0-7.85,1.45-9.6,4.35Z"/>
      <path class="cls-3" d="M138.94,93.42c-1.85.51-4.08.76-6.69.76-1.15-.19-1.72-.73-1.72-1.62-2.8-6.31-6.12-12.8-9.94-19.49-7.58-12.87-11.85-19.97-12.8-21.31.13,4.84.1,15.92-.1,33.25,0,2.93.03,5.13.1,6.59.13,1.08-.25,1.66-1.15,1.72-.89.06-2.01.1-3.34.1s-2.39.03-3.15.1c-.45.06-.86-.06-1.24-.38-.38-.32-.57-.73-.57-1.24.13-4.39.19-11.34.19-20.83,0-11.78-.32-23.09-.96-33.92-.13-1.78.67-2.74,2.39-2.87h9.55c1.72.19,2.77.67,3.15,1.43,2.61,3.76,5.48,8.28,8.6,13.57.96,1.53,3.01,5.18,6.16,10.94,3.15,5.77,4.95,9,5.4,9.7,0-2.16-.09-7.51-.29-16.05v-9.03c0-3.85-.03-6.32-.1-7.4-.06-1.21.05-2.01.33-2.39.29-.38.97-.64,2.05-.76,1.72-.19,3.28-.29,4.68-.29.25.13.51.22.76.29.25.06.43.21.53.43.1.22.11.56.05,1,0,4.27-.16,13.47-.48,27.61-.32,14.14-.48,23.41-.48,27.8,0,1.34-.32,2.1-.96,2.29Z"/>
      <path class="cls-3" d="M172.67,93.42c-1.53.13-7.17.19-16.91.19-1.28,0-2.44-.43-3.49-1.29-1.05-.86-1.64-1.8-1.77-2.82-.25-4.14-.38-8.76-.38-13.85,0-23.76.25-36.24.76-37.46.25-.76.75-1.54,1.48-2.34.73-.79,1.48-1.16,2.25-1.1,2.29-.19,5.8-.29,10.51-.29l21.59.38c1.02.13,1.43,2.45,1.24,6.97-.19,4.52-.57,7.1-1.15,7.74-.32.26-.83.51-1.53.76-.64,0-2.45-.08-5.45-.24-3-.16-5.45-.25-7.36-.29-1.91-.03-4.68.02-8.31.14-.38-.06-.73.05-1.05.33-.32.29-.48.81-.48,1.58v7.17c0,1.27.41,1.91,1.24,1.91,8.66,0,15.51-.03,20.54-.1,1.08-.19,1.53.91,1.34,3.3-.19,2.39-.83,3.62-1.91,3.68-5.61.51-12.04.99-19.3,1.43-.76.06-1.28.22-1.53.48s-.35.76-.29,1.53v5.25c0,2.61.06,4.78.19,6.5,0,.89.13,1.45.38,1.67.25.22.8.33,1.62.33,5.92.32,12.99.1,21.21-.67,1.15-.06,1.73,1,1.77,3.2.03,2.2-.3,3.39-1,3.58-4.78,1.4-9.52,2.17-14.24,2.29Z"/>
      <path class="cls-3" d="M266.4,94.85c-.83-.32-1.24-.79-1.24-1.43-.57-12.29-1.59-24.24-3.06-35.83-1.28,2.48-2.61,5.57-4.01,9.27-3.44,7.52-5.73,12.1-6.88,13.76-.89.64-1.78.92-2.68.86-.89-.06-1.56-.32-2.01-.76-.51-.57-1.07-1.56-1.67-2.96-.61-1.4-1.31-3.17-2.1-5.3-.8-2.13-1.45-3.74-1.96-4.83-1.02-2.55-2.17-5.4-3.44-8.55-1.28-3.15-2.07-5.14-2.39-5.97l-2.58,39.17c-.13,1.34-.57,2.04-1.34,2.1-1.78,0-3.82-.1-6.12-.29-1.28-.19-1.69-1.05-1.24-2.58,1.15-24.27,2.42-42.33,3.82-54.17.38-1.34,1.24-2.23,2.58-2.68,4.71,0,7.26.35,7.64,1.05,2.55,3.76,4.75,7.9,6.59,12.42.7,1.53,1.77,4.28,3.2,8.26,1.43,3.98,2.21,6.07,2.34,6.26.83-1.53,2.87-6.05,6.12-13.57,1.97-4.84,4.01-9.2,6.12-13.09.64-1.21,1.5-1.82,2.58-1.82,3.88,0,6.66.35,8.31,1.05.64.13.99.54,1.05,1.24,1.08,7.07,2.07,16.62,2.96,28.66.64,5.8,1.18,15.07,1.62,27.8-.13.83-.51,1.31-1.15,1.43-3.12,0-6.82.16-11.08.48Z"/>
      <path class="cls-3" d="M288.85,83.57c-2.42-4.84-3.63-12.45-3.63-22.83,0-9.24,1.7-16.1,5.11-20.59,3.41-4.49,8.74-6.74,16-6.74,6.31,0,11.04,2.26,14.19,6.78,3.15,4.52,4.73,11.05,4.73,19.59,0,11.27-1.47,19.4-4.4,24.36-3.89,6.75-9.52,10.13-16.91,10.13-6.37,0-11.4-3.57-15.1-10.7ZM296.54,46.26c-1.75,2.9-2.63,7.34-2.63,13.33,0,17.01,3.44,25.51,10.32,25.51,5.16,0,8.85-2.83,11.08-8.5,1.08-2.87,1.62-8.15,1.62-15.86,0-2.74-.11-5.08-.33-7.02-.22-1.94-.69-3.88-1.39-5.83-.7-1.94-1.8-3.42-3.3-4.44-1.5-1.02-3.42-1.53-5.78-1.53-4.65,0-7.85,1.45-9.6,4.35Z"/>
      <path class="cls-3" d="M347.23,72.01c-.38,7.2-.51,13.76-.38,19.68,0,1.4-.51,2.1-1.53,2.1-.57,0-2.02.06-4.35.19-2.33.13-4,.19-5.02.19-1.47,0-2.2-.89-2.2-2.68v-6.78c0-23.5-.16-38.76-.48-45.77,0-1.53.27-2.63.81-3.3s1.51-1.04,2.92-1.1c4.59-.19,9.59-.29,15-.29,5.03,0,9.33,1.05,12.9,3.15,2.42,1.34,4.28,3.19,5.59,5.54,1.31,2.36,1.96,4.94,1.96,7.74,0,9.24-4.2,16.08-12.61,20.54.7.76,2.98,3.6,6.83,8.5,3.85,4.91,6.61,8.41,8.26,10.51.64.76.03,1.85-1.82,3.25-1.85,1.4-3.5,2.1-4.97,2.1-.7,0-1.27-.29-1.72-.86l-9.55-11.56c-5.35-6.31-8.57-10.03-9.65-11.18ZM348.28,41.06c-.13,1.59-.22,3.63-.29,6.11-.06,2.48-.13,5.62-.19,9.41-.06,3.79-.13,6.93-.19,9.41,2.42,0,4.84-.43,7.26-1.29,2.42-.86,4.17-1.73,5.25-2.63,3.06-3.25,4.46-7.8,4.2-13.66-.19-3.95-3.92-6.43-11.18-7.45-.89-.13-2.52-.1-4.87.1Z"/>
      <path class="cls-3" d="M404.75,93.42c-1.53.13-7.17.19-16.91.19-1.28,0-2.44-.43-3.49-1.29-1.05-.86-1.64-1.8-1.77-2.82-.25-4.14-.38-8.76-.38-13.85,0-23.76.25-36.24.76-37.46.25-.76.75-1.54,1.48-2.34.73-.79,1.48-1.16,2.25-1.1,2.29-.19,5.8-.29,10.51-.29l21.59.38c1.02.13,1.43,2.45,1.24,6.97-.19,4.52-.57,7.1-1.15,7.74-.32.26-.83.51-1.53.76-.64,0-2.45-.08-5.45-.24-3-.16-5.45-.25-7.36-.29-1.91-.03-4.68.02-8.31.14-.38-.06-.73.05-1.05.33-.32.29-.48.81-.48,1.58v7.17c0,1.27.41,1.91,1.24,1.91,8.66,0,15.51-.03,20.54-.1,1.08-.19,1.53.91,1.34,3.3-.19,2.39-.83,3.62-1.91,3.68-5.61.51-12.04.99-19.3,1.43-.76.06-1.28.22-1.53.48s-.35.76-.29,1.53v5.25c0,2.61.06,4.78.19,6.5,0,.89.13,1.45.38,1.67.25.22.8.33,1.62.33,5.92.32,12.99.1,21.21-.67,1.15-.06,1.73,1,1.77,3.2.03,2.2-.3,3.39-1,3.58-4.78,1.4-9.52,2.17-14.24,2.29Z"/>
      <path class="cls-3" d="M450.65,75.02c-2.77.1-5.05-.02-6.83-.33-1.59,0-2.33-.8-2.2-2.39.19-3.76,1.37-7.83,3.54-12.23,1.02-2.04,2.64-4.4,4.87-7.07,2.23-2.68,3.34-4.75,3.34-6.21,0-2.74-.56-4.59-1.67-5.54-1.12-.96-3.14-1.4-6.07-1.34-1.66.06-3.25.62-4.78,1.67-1.53,1.05-3.41,2.91-5.64,5.59-.89,1.15-2.47.8-4.73-1.05-2.26-1.85-2.95-3.41-2.05-4.68,2.67-3.82,5.78-6.75,9.32-8.79,3.54-2.04,6.89-3.06,10.08-3.06,6.18,0,11.18,1.47,15,4.4,2.68,1.97,4.38,4.84,5.11,8.6.73,3.76.08,7.55-1.96,11.37-.51.89-1.8,2.53-3.87,4.92-2.07,2.39-3.55,4.32-4.44,5.78-1.47,2.42-2.29,4.59-2.48,6.5,0,.06-.05.46-.14,1.19-.1.73-.14,1.26-.14,1.58-.06.64-1.48,1-4.25,1.1ZM440.77,95.14c-1.02-2.29-1.59-5.19-1.72-8.69,0-.83.17-1.64.53-2.44.35-.8.78-1.23,1.29-1.29,1.59-.38,3.65-.76,6.16-1.15,2.51-.38,4.47-.45,5.88-.19,1.21.19,2.25,1.37,3.1,3.54.86,2.17,1.16,3.7.91,4.59-.13.45-.27,1.1-.43,1.96-.16.86-.32,1.54-.48,2.05-.16.51-.37.92-.62,1.24-.76.83-1.81,1.35-3.15,1.58-1.34.22-2.26.27-2.77.14-3.06.25-5.06.38-6.02.38-1.28,0-2.17-.57-2.68-1.72Z"/>
    </g>
    <g>
      <path class="cls-2" d="M48.79,78.84c-2.42-4.84-3.63-12.45-3.63-22.83,0-9.24,1.7-16.1,5.11-20.59,3.41-4.49,8.74-6.74,16-6.74,6.31,0,11.04,2.26,14.19,6.78,3.15,4.52,4.73,11.05,4.73,19.59,0,11.27-1.47,19.4-4.4,24.36-3.89,6.75-9.52,10.13-16.91,10.13-6.37,0-11.4-3.57-15.1-10.7ZM56.48,41.53c-1.75,2.9-2.63,7.34-2.63,13.33,0,17.01,3.44,25.51,10.32,25.51,5.16,0,8.85-2.83,11.08-8.5,1.08-2.87,1.62-8.15,1.62-15.86,0-2.74-.11-5.08-.33-7.02-.22-1.94-.69-3.88-1.39-5.83-.7-1.94-1.8-3.42-3.3-4.44-1.5-1.02-3.42-1.53-5.78-1.53-4.65,0-7.85,1.45-9.6,4.35Z"/>
      <path class="cls-2" d="M134.21,88.68c-1.85.51-4.08.76-6.69.76-1.15-.19-1.72-.73-1.72-1.62-2.8-6.31-6.12-12.8-9.94-19.49-7.58-12.87-11.85-19.97-12.8-21.31.13,4.84.1,15.92-.1,33.25,0,2.93.03,5.13.1,6.59.13,1.08-.25,1.66-1.15,1.72-.89.06-2.01.1-3.34.1s-2.39.03-3.15.1c-.45.06-.86-.06-1.24-.38-.38-.32-.57-.73-.57-1.24.13-4.39.19-11.34.19-20.83,0-11.78-.32-23.09-.96-33.92-.13-1.78.67-2.74,2.39-2.87h9.55c1.72.19,2.77.67,3.15,1.43,2.61,3.76,5.48,8.28,8.6,13.57.96,1.53,3.01,5.18,6.16,10.94,3.15,5.77,4.95,9,5.4,9.7,0-2.16-.09-7.51-.29-16.05v-9.03c0-3.85-.03-6.32-.1-7.4-.06-1.21.05-2.01.33-2.39.29-.38.97-.64,2.05-.76,1.72-.19,3.28-.29,4.68-.29.25.13.51.22.76.29.25.06.43.21.53.43.1.22.11.56.05,1,0,4.27-.16,13.47-.48,27.61-.32,14.14-.48,23.41-.48,27.8,0,1.34-.32,2.1-.96,2.29Z"/>
      <path class="cls-2" d="M167.94,88.68c-1.53.13-7.17.19-16.91.19-1.28,0-2.44-.43-3.49-1.29-1.05-.86-1.64-1.8-1.77-2.82-.25-4.14-.38-8.76-.38-13.85,0-23.76.25-36.24.76-37.46.25-.76.75-1.54,1.48-2.34.73-.79,1.48-1.16,2.25-1.1,2.29-.19,5.8-.29,10.51-.29l21.59.38c1.02.13,1.43,2.45,1.24,6.97-.19,4.52-.57,7.1-1.15,7.74-.32.26-.83.51-1.53.76-.64,0-2.45-.08-5.45-.24-3-.16-5.45-.25-7.36-.29-1.91-.03-4.68.02-8.31.14-.38-.06-.73.05-1.05.33-.32.29-.48.81-.48,1.58v7.17c0,1.27.41,1.91,1.24,1.91,8.66,0,15.51-.03,20.54-.1,1.08-.19,1.53.91,1.34,3.3-.19,2.39-.83,3.62-1.91,3.68-5.61.51-12.04.99-19.3,1.43-.76.06-1.28.22-1.53.48s-.35.76-.29,1.53v5.25c0,2.61.06,4.78.19,6.5,0,.89.13,1.45.38,1.67.25.22.8.33,1.62.33,5.92.32,12.99.1,21.21-.67,1.15-.06,1.73,1,1.77,3.2.03,2.2-.3,3.39-1,3.58-4.78,1.4-9.52,2.17-14.24,2.29Z"/>
      <path class="cls-2" d="M261.67,90.12c-.83-.32-1.24-.79-1.24-1.43-.57-12.29-1.59-24.24-3.06-35.83-1.28,2.48-2.61,5.57-4.01,9.27-3.44,7.52-5.73,12.1-6.88,13.76-.89.64-1.78.92-2.68.86-.89-.06-1.56-.32-2.01-.76-.51-.57-1.07-1.56-1.67-2.96-.61-1.4-1.31-3.17-2.1-5.3-.8-2.13-1.45-3.74-1.96-4.83-1.02-2.55-2.17-5.4-3.44-8.55-1.28-3.15-2.07-5.14-2.39-5.97l-2.58,39.17c-.13,1.34-.57,2.04-1.34,2.1-1.78,0-3.82-.1-6.12-.29-1.28-.19-1.69-1.05-1.24-2.58,1.15-24.27,2.42-42.33,3.82-54.17.38-1.34,1.24-2.23,2.58-2.68,4.71,0,7.26.35,7.64,1.05,2.55,3.76,4.75,7.9,6.59,12.42.7,1.53,1.77,4.28,3.2,8.26,1.43,3.98,2.21,6.07,2.34,6.26.83-1.53,2.87-6.05,6.12-13.57,1.97-4.84,4.01-9.2,6.12-13.09.64-1.21,1.5-1.82,2.58-1.82,3.88,0,6.66.35,8.31,1.05.64.13.99.54,1.05,1.24,1.08,7.07,2.07,16.62,2.96,28.66.64,5.8,1.18,15.07,1.62,27.8-.13.83-.51,1.31-1.15,1.43-3.12,0-6.82.16-11.08.48Z"/>
      <path class="cls-2" d="M284.12,78.84c-2.42-4.84-3.63-12.45-3.63-22.83,0-9.24,1.7-16.1,5.11-20.59,3.41-4.49,8.74-6.74,16-6.74,6.31,0,11.04,2.26,14.19,6.78,3.15,4.52,4.73,11.05,4.73,19.59,0,11.27-1.47,19.4-4.4,24.36-3.89,6.75-9.52,10.13-16.91,10.13-6.37,0-11.4-3.57-15.1-10.7ZM291.81,41.53c-1.75,2.9-2.63,7.34-2.63,13.33,0,17.01,3.44,25.51,10.32,25.51,5.16,0,8.85-2.83,11.08-8.5,1.08-2.87,1.62-8.15,1.62-15.86,0-2.74-.11-5.08-.33-7.02-.22-1.94-.69-3.88-1.39-5.83-.7-1.94-1.8-3.42-3.3-4.44-1.5-1.02-3.42-1.53-5.78-1.53-4.65,0-7.85,1.45-9.6,4.35Z"/>
      <path class="cls-2" d="M342.49,67.28c-.38,7.2-.51,13.76-.38,19.68,0,1.4-.51,2.1-1.53,2.1-.57,0-2.02.06-4.35.19-2.33.13-4,.19-5.02.19-1.47,0-2.2-.89-2.2-2.68v-6.78c0-23.5-.16-38.76-.48-45.77,0-1.53.27-2.63.81-3.3s1.51-1.04,2.92-1.1c4.59-.19,9.59-.29,15-.29,5.03,0,9.33,1.05,12.9,3.15,2.42,1.34,4.28,3.19,5.59,5.54,1.31,2.36,1.96,4.94,1.96,7.74,0,9.24-4.2,16.08-12.61,20.54.7.76,2.98,3.6,6.83,8.5,3.85,4.91,6.61,8.41,8.26,10.51.64.76.03,1.85-1.82,3.25-1.85,1.4-3.5,2.1-4.97,2.1-.7,0-1.27-.29-1.72-.86l-9.55-11.56c-5.35-6.31-8.57-10.03-9.65-11.18ZM343.55,36.32c-.13,1.59-.22,3.63-.29,6.11-.06,2.48-.13,5.62-.19,9.41-.06,3.79-.13,6.93-.19,9.41,2.42,0,4.84-.43,7.26-1.29,2.42-.86,4.17-1.73,5.25-2.63,3.06-3.25,4.46-7.8,4.2-13.66-.19-3.95-3.92-6.43-11.18-7.45-.89-.13-2.52-.1-4.87.1Z"/>
      <path class="cls-2" d="M400.01,88.68c-1.53.13-7.17.19-16.91.19-1.28,0-2.44-.43-3.49-1.29-1.05-.86-1.64-1.8-1.77-2.82-.25-4.14-.38-8.76-.38-13.85,0-23.76.25-36.24.76-37.46.25-.76.75-1.54,1.48-2.34.73-.79,1.48-1.16,2.25-1.1,2.29-.19,5.8-.29,10.51-.29l21.59.38c1.02.13,1.43,2.45,1.24,6.97-.19,4.52-.57,7.1-1.15,7.74-.32.26-.83.51-1.53.76-.64,0-2.45-.08-5.45-.24-3-.16-5.45-.25-7.36-.29-1.91-.03-4.68.02-8.31.14-.38-.06-.73.05-1.05.33-.32.29-.48.81-.48,1.58v7.17c0,1.27.41,1.91,1.24,1.91,8.66,0,15.51-.03,20.54-.1,1.08-.19,1.53.91,1.34,3.3-.19,2.39-.83,3.62-1.91,3.68-5.61.51-12.04.99-19.3,1.43-.76.06-1.28.22-1.53.48s-.35.76-.29,1.53v5.25c0,2.61.06,4.78.19,6.5,0,.89.13,1.45.38,1.67.25.22.8.33,1.62.33,5.92.32,12.99.1,21.21-.67,1.15-.06,1.73,1,1.77,3.2.03,2.2-.3,3.39-1,3.58-4.78,1.4-9.52,2.17-14.24,2.29Z"/>
      <path class="cls-2" d="M445.92,70.29c-2.77.1-5.05-.02-6.83-.33-1.59,0-2.33-.8-2.2-2.39.19-3.76,1.37-7.83,3.54-12.23,1.02-2.04,2.64-4.4,4.87-7.07,2.23-2.68,3.34-4.75,3.34-6.21,0-2.74-.56-4.59-1.67-5.54-1.12-.96-3.14-1.4-6.07-1.34-1.66.06-3.25.62-4.78,1.67-1.53,1.05-3.41,2.91-5.64,5.59-.89,1.15-2.47.8-4.73-1.05-2.26-1.85-2.95-3.41-2.05-4.68,2.67-3.82,5.78-6.75,9.32-8.79,3.54-2.04,6.89-3.06,10.08-3.06,6.18,0,11.18,1.47,15,4.4,2.68,1.97,4.38,4.84,5.11,8.6.73,3.76.08,7.55-1.96,11.37-.51.89-1.8,2.53-3.87,4.92-2.07,2.39-3.55,4.32-4.44,5.78-1.47,2.42-2.29,4.59-2.48,6.5,0,.06-.05.46-.14,1.19-.1.73-.14,1.26-.14,1.58-.06.64-1.48,1-4.25,1.1ZM436.03,90.4c-1.02-2.29-1.59-5.19-1.72-8.69,0-.83.17-1.64.53-2.44.35-.8.78-1.23,1.29-1.29,1.59-.38,3.65-.76,6.16-1.15,2.51-.38,4.47-.45,5.88-.19,1.21.19,2.25,1.37,3.1,3.54.86,2.17,1.16,3.7.91,4.59-.13.45-.27,1.1-.43,1.96-.16.86-.32,1.54-.48,2.05-.16.51-.37.92-.62,1.24-.76.83-1.81,1.35-3.15,1.58-1.34.22-2.26.27-2.77.14-3.06.25-5.06.38-6.02.38-1.28,0-2.17-.57-2.68-1.72Z"/>
    </g>
  </g>
</svg>