<?xml version="1.0" encoding="UTF-8"?>
<svg id="_레이어_2" data-name=" 레이어 2" xmlns="http://www.w3.org/2000/svg" viewBox="0 0 349.24 119.84">
  <defs>
    <style>
      .cls-1 {
        fill: #281b05;
      }

      .cls-2 {
        fill: #ffc931;
      }

      .cls-3 {
        fill: #8c4f1f;
      }
    </style>
  </defs>
  <path class="cls-1" d="M60.54,0h228.16c33.09,0,59.92,26.83,59.92,59.92h0c0,33.09-26.83,59.92-59.92,59.92H60.54C27.45,119.84.62,93.01.62,59.92h0C.62,26.83,27.45,0,60.54,0Z"/>
  <g id="PLAY">
    <g>
      <path class="cls-3" d="M82.89,84.87c0,2.49.04,5.17.11,8.04s.11,4.38.11,4.53c0,2.57-.56,3.85-1.69,3.85-1.43.3-3.12.53-5.08.68-1.8,0-3.04-.6-3.72-1.81v-9.17c0-5.96-.11-11.39-.34-16.3-.3-6.04-.45-11.47-.45-16.3,0-7.17-.08-14.6-.23-22.3-.23-3.55,1.31-5.36,4.62-5.43,7.37-.38,13.8-.57,19.29-.57,6.47,0,11.65,1.81,15.56,5.43,4.66,3.85,6.99,9.39,6.99,16.64,0,9.66-3.35,17.17-10.04,22.52-4.66,3.7-12.97,5.55-24.92,5.55-.15.6-.23,2.15-.23,4.64h.02ZM87.97,46.84c-1.96,0-3.01.91-3.16,2.72-.53,7.4-.98,15.09-1.35,23.09,3.16-.07,6.28-.32,9.36-.74,3.08-.41,5.19-1.19,6.32-2.32,3.23-2.56,4.85-6.22,4.85-10.98,0-4.07-1.07-7.07-3.21-9s-5.55-2.85-10.21-2.77h-2.6Z"/>
      <path class="cls-3" d="M168.04,79.89c.45,1.66.81,4.96,1.07,9.9.26,4.94.28,7.57.06,7.87-.38.68-1.39,1.09-3.05,1.25-.75.15-2.31.23-4.68.23s-3.93.08-4.68.23c-.98.15-3.25.34-6.82.57s-5.73.3-6.49.23c-5.94,0-9.89.19-11.84.57-1.13.08-2.05-.34-2.76-1.25-.72-.91-1.11-2-1.18-3.28,0-2.41-.08-4.6-.23-6.56-.3-3.17-.23-9.24.23-18.22l-.34-16.86c-.23-11.24-.23-18.3,0-21.17.07-1.51.64-2.38,1.69-2.6,1.05-.15,2.48-.3,4.29-.45,1.8-.15,2.78-.23,2.93-.23,1.2,0,1.8,1.02,1.8,3.06,0,1.28-.06,8.73-.17,22.35-.11,13.62-.13,20.66-.06,21.11.15,1.06.26,1.77.34,2.15.07.38.3.74.68,1.08.38.34.9.55,1.58.62,2.03.15,5.56.04,10.6-.34.6-.23,2.37-.4,5.3-.51s4.7-.21,5.3-.28c4.06-.68,6.2-.49,6.43.57v-.04Z"/>
      <path class="cls-3" d="M229.28,100.77c-1.96.19-3.05-.32-3.27-1.53-2.11-10.34-3.23-15.73-3.38-16.18-.3-1.21-1.32-1.81-3.05-1.81-8.95.3-15.19.83-18.72,1.58-1.65.38-2.82,1.55-3.5,3.51l-4.06,13.02c-.3,1.06-.94,1.58-1.92,1.58-7.07,0-12.41-.07-16.01-.23-.68-.07-1.05-.38-1.13-.91-.08-.53,0-1.09.23-1.7.3-1.51,1.39-5.32,3.27-11.43,5.49-18.11,11.39-35.24,17.71-51.38.15-.3.64-.92,1.47-1.87.83-.94,1.43-1.49,1.8-1.64,1.95-1.21,4.7-2,8.23-2.38,2.48-.38,5.45-.57,8.91-.57.9,0,1.62.68,2.14,2.04,2.48,5.74,5.56,16.98,9.25,33.73,3.91,19.24,6.01,30.33,6.32,33.28.15,1.28-.11,2-.79,2.15-.38.3-1.54.55-3.5.74ZM202.66,68.12c-.23.76-.21,1.26.06,1.53.26.27.88.44,1.86.51.75,0,2.72.02,5.92.06,3.19.04,5.47.09,6.82.17,1.2.08,1.95-.02,2.26-.28.3-.26.34-.92.11-1.98-1.88-9.43-4.14-17.28-6.77-23.54-.53-1.21-1.17-.94-1.92.79-3.46,8.07-6.24,15.66-8.35,22.75h.01Z"/>
      <path class="cls-3" d="M262.77,99.47c-.3.61-.79,1.13-1.47,1.58-2.93-.07-6.02-.07-9.25,0-.83-.38-1.24-.94-1.24-1.7,0-3.17.11-7.28.34-12.34.23-5.05.26-8.49.11-10.3-9.17-14.34-15.26-28.86-18.27-43.58-.23-1.28.49-2,2.14-2.15,1.05,0,2.82-.21,5.3-.62,2.48-.41,4.4-.7,5.75-.85.98,0,1.58.49,1.8,1.47,1.35,9.36,4.25,18.71,8.68,28.07.6,1.36,1.13,2.28,1.58,2.77.45.49.9.6,1.35.34s.98-1,1.58-2.21c2.71-5.43,5.34-11.88,7.89-19.35.52-1.36,1.01-2.77,1.47-4.24.45-1.47,1-2.77,1.64-3.91.64-1.13,1.22-1.7,1.75-1.7,4.81-.15,8.87-.04,12.18.34,1.28.23,1.65,1.13,1.13,2.72-5.41,16.22-12.74,30.86-21.99,43.92-.45,2.26-1.28,9.51-2.48,21.73h.01Z"/>
    </g>
    <g>
      <path class="cls-2" d="M77.31,79.26c0,2.49.04,5.17.11,8.04s.11,4.38.11,4.53c0,2.57-.56,3.85-1.69,3.85-1.43.3-3.12.53-5.08.68-1.8,0-3.04-.6-3.72-1.81v-9.17c0-5.96-.11-11.39-.34-16.3-.3-6.04-.45-11.47-.45-16.3,0-7.17-.08-14.6-.23-22.3-.23-3.55,1.31-5.36,4.62-5.43,7.37-.38,13.8-.57,19.29-.57,6.47,0,11.65,1.81,15.56,5.43,4.66,3.85,6.99,9.39,6.99,16.64,0,9.66-3.35,17.17-10.04,22.52-4.66,3.7-12.97,5.55-24.92,5.55-.15.6-.23,2.15-.23,4.64h.02ZM82.38,41.24c-1.96,0-3.01.91-3.16,2.72-.53,7.4-.98,15.09-1.35,23.09,3.16-.07,6.28-.32,9.36-.74,3.08-.41,5.19-1.19,6.32-2.32,3.23-2.56,4.85-6.22,4.85-10.98,0-4.07-1.07-7.07-3.21-9s-5.55-2.85-10.21-2.77h-2.6Z"/>
      <path class="cls-2" d="M162.45,74.29c.45,1.66.81,4.96,1.07,9.9.26,4.94.28,7.57.06,7.87-.38.68-1.39,1.09-3.05,1.25-.75.15-2.31.23-4.68.23s-3.93.08-4.68.23c-.98.15-3.25.34-6.82.57s-5.73.3-6.49.23c-5.94,0-9.89.19-11.84.57-1.13.08-2.05-.34-2.76-1.25-.72-.91-1.11-2-1.18-3.28,0-2.41-.08-4.6-.23-6.56-.3-3.17-.23-9.24.23-18.22l-.34-16.86c-.23-11.24-.23-18.3,0-21.17.07-1.51.64-2.38,1.69-2.6,1.05-.15,2.48-.3,4.29-.45,1.8-.15,2.78-.23,2.93-.23,1.2,0,1.8,1.02,1.8,3.06,0,1.28-.06,8.73-.17,22.35-.11,13.62-.13,20.66-.06,21.11.15,1.06.26,1.77.34,2.15.07.38.3.74.68,1.08.38.34.9.55,1.58.62,2.03.15,5.56.04,10.6-.34.6-.23,2.37-.4,5.3-.51s4.7-.21,5.3-.28c4.06-.68,6.2-.49,6.43.57v-.04Z"/>
      <path class="cls-2" d="M223.69,95.17c-1.96.19-3.05-.32-3.27-1.53-2.11-10.34-3.23-15.73-3.38-16.18-.3-1.21-1.32-1.81-3.05-1.81-8.95.3-15.19.83-18.72,1.58-1.65.38-2.82,1.55-3.5,3.51l-4.06,13.02c-.3,1.06-.94,1.58-1.92,1.58-7.07,0-12.41-.07-16.01-.23-.68-.07-1.05-.38-1.13-.91-.08-.53,0-1.09.23-1.7.3-1.51,1.39-5.32,3.27-11.43,5.49-18.11,11.39-35.24,17.71-51.38.15-.3.64-.92,1.47-1.87.83-.94,1.43-1.49,1.8-1.64,1.95-1.21,4.7-2,8.23-2.38,2.48-.38,5.45-.57,8.91-.57.9,0,1.62.68,2.14,2.04,2.48,5.74,5.56,16.98,9.25,33.73,3.91,19.24,6.01,30.33,6.32,33.28.15,1.28-.11,2-.79,2.15-.38.3-1.54.55-3.5.74ZM197.07,62.51c-.23.76-.21,1.26.06,1.53.26.27.88.44,1.86.51.75,0,2.72.02,5.92.06,3.19.04,5.47.09,6.82.17,1.2.08,1.95-.02,2.26-.28.3-.26.34-.92.11-1.98-1.88-9.43-4.14-17.28-6.77-23.54-.53-1.21-1.17-.94-1.92.79-3.46,8.07-6.24,15.66-8.35,22.75h.01Z"/>
      <path class="cls-2" d="M257.19,93.87c-.3.61-.79,1.13-1.47,1.58-2.93-.07-6.02-.07-9.25,0-.83-.38-1.24-.94-1.24-1.7,0-3.17.11-7.28.34-12.34.23-5.05.26-8.49.11-10.3-9.17-14.34-15.26-28.86-18.27-43.58-.23-1.28.49-2,2.14-2.15,1.05,0,2.82-.21,5.3-.62,2.48-.41,4.4-.7,5.75-.85.98,0,1.58.49,1.8,1.47,1.35,9.36,4.25,18.71,8.68,28.07.6,1.36,1.13,2.28,1.58,2.77s.9.6,1.35.34c.45-.26.98-1,1.58-2.21,2.71-5.43,5.34-11.88,7.89-19.35.52-1.36,1.01-2.77,1.47-4.24.45-1.47,1-2.77,1.64-3.91.64-1.13,1.22-1.7,1.75-1.7,4.81-.15,8.87-.04,12.18.34,1.28.23,1.65,1.13,1.13,2.72-5.41,16.22-12.74,30.86-21.99,43.92-.45,2.26-1.28,9.51-2.48,21.73h0Z"/>
    </g>
  </g>
</svg>