<?xml version="1.0" encoding="UTF-8"?>
<svg id="_레이어_2" data-name="레이어 2" xmlns="http://www.w3.org/2000/svg" viewBox="0 0 1024 768">
  <defs>
    <style>
      .cls-1 {
        fill: #291c07;
      }

      .cls-2 {
        fill: #281b05;
      }

      .cls-3 {
        fill: #f93;
      }

      .cls-4 {
        fill: #ffc931;
      }

      .cls-5 {
        fill: #fff1e1;
      }

      .cls-6 {
        fill: #8f9347;
      }

      .cls-7 {
        fill: #291d04;
      }

      .cls-8 {
        fill: #4d6829;
      }
    </style>
  </defs>
  <g id="_악어새" data-name="악어새">
    <g>
      <path class="cls-4" d="M378.52,300.95l-15.51,2.39s-1.79,8.05,2.68,11.04l17.9-9.25-5.07-4.18Z"/>
      <path class="cls-1" d="M365.7,316.53c-.42,0-.84-.12-1.2-.36-5.64-3.76-3.68-12.92-3.6-13.31.19-.87.9-1.54,1.79-1.67l15.51-2.39c.61-.09,1.23.08,1.71.47l5.07,4.18c.56.46.85,1.18.78,1.9-.08.72-.51,1.36-1.16,1.7l-17.9,9.25c-.31.16-.65.24-.99.24ZM364.9,305.23c-.2,1.95-.15,4.82,1.14,6.52l13.64-7.05-1.79-1.47-12.99,2Z"/>
    </g>
    <g>
      <path class="cls-4" d="M386.41,309.73l-4.82,14.93s-8.24.49-10.47-4.41l11.98-16.2,3.32,5.67Z"/>
      <path class="cls-1" d="M380.99,326.84c-2.33,0-9.44-.44-11.84-5.69-.33-.72-.24-1.55.23-2.19l11.98-16.2c.43-.59,1.13-.91,1.86-.88.73.04,1.39.44,1.75,1.07l3.32,5.67c.31.53.38,1.17.19,1.76l-4.82,14.93c-.27.85-1.04,1.44-1.93,1.5-.06,0-.32.02-.73.02ZM373.76,320.33c1.47,1.54,4.29,2.05,6.25,2.16l4.04-12.5-1.17-2-9.12,12.34Z"/>
    </g>
    <g>
      <path class="cls-4" d="M436.69,273.8s39.07-1.79,5.37,18.79"/>
      <path class="cls-1" d="M442.06,294.76c-.73,0-1.44-.37-1.85-1.04-.62-1.02-.3-2.35.72-2.98,13.25-8.09,12.73-11.25,12.63-11.59-.56-1.84-7.58-3.61-16.77-3.19-1.2.04-2.21-.87-2.26-2.07-.05-1.2.87-2.21,2.07-2.26,4.44-.2,19.09-.35,21.11,6.25,1.37,4.48-3.1,9.59-14.51,16.56-.35.21-.74.32-1.13.32Z"/>
    </g>
    <g>
      <circle class="cls-4" cx="408.87" cy="289.27" r="38.03"/>
      <path class="cls-1" d="M408.87,329.47c-22.16,0-40.19-18.03-40.19-40.19s18.03-40.19,40.19-40.19,40.19,18.03,40.19,40.19-18.03,40.19-40.19,40.19ZM408.87,253.41c-19.77,0-35.86,16.09-35.86,35.86s16.09,35.86,35.86,35.86,35.86-16.09,35.86-35.86-16.09-35.86-35.86-35.86Z"/>
    </g>
    <g>
      <path class="cls-4" d="M383.97,297.56s-5.87,25.36,16.44,6.58"/>
      <path class="cls-1" d="M387.83,313.25c-1.21,0-2.3-.3-3.26-.89-.91-.56-5.34-3.93-2.71-15.29.27-1.17,1.43-1.89,2.6-1.62,1.16.27,1.89,1.43,1.62,2.6h0c-.86,3.73-1.07,9.5.75,10.62.47.29,3.25,1.33,12.18-6.18.92-.77,2.28-.65,3.05.26.77.92.65,2.28-.26,3.05-5.95,5.01-10.5,7.45-13.98,7.45Z"/>
    </g>
    <g>
      <path class="cls-3" d="M447.29,301.14c1.17-1.01,1.1-2.86-.16-3.76-3.19-2.29-9.39-4.04-15.64-4.01-1.38,0-2.75.52-3.59,1.15-2.6,1.97-3.13,5.44-2.97,7.93.1,1.43.65,3.18,1.96,4.04s3.4.86,5.31.73c4.24-.29,9.96-1.64,15.09-6.09Z"/>
      <path class="cls-1" d="M430.58,309.46c-1.73,0-3.49-.24-4.88-1.15-2.41-1.59-2.86-4.52-2.93-5.71-.13-1.98-.02-6.89,3.82-9.8,1.28-.97,3.15-1.58,4.88-1.59,6.4-.04,13.19,1.73,16.92,4.41,1.14.81,1.83,2.09,1.89,3.48.07,1.41-.51,2.75-1.57,3.67-5.68,4.93-12.04,6.32-16.36,6.61-.57.04-1.17.07-1.77.07ZM431.7,295.54c-.07,0-.14,0-.2,0-.94,0-1.85.37-2.29.71-2.22,1.68-2.18,5.06-2.12,6.06.07,1.08.47,2.03.99,2.37.89.59,3.21.43,3.97.38,3.67-.25,9.04-1.42,13.82-5.56h0c.06-.05.09-.12.09-.2,0-.1-.07-.15-.09-.16-2.43-1.74-7.88-3.6-14.17-3.6Z"/>
    </g>
    <ellipse class="cls-1" cx="409.34" cy="295.72" rx="3.91" ry="7.75" transform="translate(-70.84 139.39) rotate(-17.81)"/>
    <ellipse class="cls-1" cx="436.69" cy="283.18" rx="3.48" ry="6.9" transform="translate(-43.13 81.54) rotate(-10.17)"/>
    <path class="cls-1" d="M360.32,291.08c-.79,0-1.5-.54-1.69-1.34-2.94-12.68,5.55-18.98,5.92-19.25.78-.56,1.86-.38,2.42.39.56.77.39,1.85-.39,2.42-.29.22-6.98,5.29-4.58,15.66.22.93-.36,1.86-1.3,2.08-.13.03-.26.05-.39.05Z"/>
    <path class="cls-1" d="M354.01,288c-.84,0-1.57-.61-1.71-1.46-1.47-9.21,2.93-14,3.12-14.2.66-.7,1.75-.73,2.45-.07.69.65.73,1.74.08,2.44-.16.17-3.41,3.87-2.23,11.28.15.95-.49,1.83-1.44,1.98-.09.01-.18.02-.28.02Z"/>
  </g>
  <g id="_악어3" data-name="악어3">
    <g>
      <path class="cls-8" d="M646.35,533.39s-42.06,67.11-39.37,145.86c0,0,109.32,39.93,247.12,13.09l99.22-8.52-46.53-194.63"/>
      <path class="cls-7" d="M756.76,705.47c-30.78,0-57.6-2.65-78.47-5.75-44.44-6.61-71.52-16.39-72.65-16.81-1.49-.55-2.51-1.94-2.56-3.53-1.41-41.33,9.52-79.36,18.93-103.98,10.2-26.67,20.59-43.38,21.03-44.08,1.14-1.82,3.55-2.38,5.37-1.23s2.38,3.55,1.24,5.38c-.41.65-40.44,65.53-38.85,140.97,7.67,2.54,32.66,10.23,68.87,15.6,40.3,5.98,103.14,10.21,173.69-3.53.14-.03.27-.05.41-.06l94.71-8.13-45.48-190.22c-.5-2.09.79-4.2,2.89-4.7,2.09-.5,4.2.79,4.7,2.89l46.53,194.62c.26,1.1.03,2.27-.63,3.19-.66.92-1.7,1.51-2.83,1.6l-99.01,8.5c-35.1,6.82-68.32,9.26-97.88,9.26Z"/>
    </g>
    <g>
      <path class="cls-8" d="M910.7,511.58s57.87,89.48,47.13,176.58c0,0-32.1,13.91-100.67,7.31,0,0,.79-54.75-3.46-84.95"/>
      <path class="cls-7" d="M892.81,701.16c-10.66,0-22.66-.52-36.03-1.81-2.02-.19-3.56-1.91-3.53-3.94,0-.55.74-54.8-3.42-84.35-.3-2.13,1.19-4.1,3.32-4.41,2.13-.3,4.1,1.18,4.41,3.32,3.66,26.01,3.63,69.14,3.54,81.94,54.81,4.79,85.27-3.88,93.13-6.58,2.66-24.56,1.16-64.1-19.5-116.54-12.83-32.56-27.16-54.88-27.3-55.1-1.17-1.81-.65-4.22,1.16-5.39,1.81-1.17,4.22-.65,5.39,1.16.6.93,14.83,23.08,27.94,56.31,12.14,30.77,25.43,77.05,19.78,122.86-.17,1.37-1.05,2.55-2.32,3.1-1.09.47-22.37,9.42-66.56,9.42ZM957.83,688.16h0,0Z"/>
    </g>
    <path class="cls-6" d="M827,565.63s27.14,28.46,8.95,125.8c0,0-86.2,21.77-225.05-14.17,0,0-9.84-45.5,24.16-122.53,0,0-111.85-3.2-156.15-35.41-44.29-32.21-33.11-36.24-33.11-36.24,0,0,76.51-5.82,165.99-5.82,22.82-2.68,32.66-2.68,113.64-30.87,80.98-28.19,164.65-1.34,168.68,51.01,4.03,52.35-42.95,76.06-67.11,68.23Z"/>
    <path class="cls-7" d="M756.76,705.47c-30.78,0-57.6-2.65-78.47-5.75-44.44-6.61-71.52-16.39-72.65-16.81-1.49-.55-2.51-1.94-2.56-3.53-2.7-79.12,25.58-121.35,26.78-123.11,1.22-1.78,3.65-2.23,5.42-1.01,1.78,1.22,2.23,3.64,1.02,5.42h0c-.07.1-7.09,10.53-13.7,30.26-5.96,17.79-12.77,46.93-11.8,85.5,7.67,2.54,32.66,10.23,68.87,15.6,40.3,5.98,103.14,10.21,173.69-3.53,2.11-.41,4.16.97,4.57,3.08s-.97,4.16-3.08,4.57c-35.17,6.85-68.47,9.3-98.09,9.3Z"/>
    <path class="cls-7" d="M658.91,562.34c-3.13,0-6.3-.02-9.5-.05-73.42-.8-126.38-10.41-157.4-28.57-49.19-27.93-55.28-51.59-55.51-52.58-.5-2.1.8-4.2,2.9-4.69,2.09-.5,4.2.8,4.69,2.9,0,.01,1.45,5.37,8.49,13.85,6.55,7.9,19.38,20.16,43.33,33.76,71.47,41.84,251.78,23.57,253.59,23.37,2.14-.23,4.06,1.33,4.28,3.47.22,2.14-1.33,4.06-3.47,4.28-.43.04-41.24,4.25-91.4,4.25Z"/>
    <g>
      <path class="cls-5" d="M631.83,470.01s-18.96,42.84-26.9,42.84-25.45-40.3-25.45-40.3l52.35-2.54Z"/>
      <path class="cls-2" d="M604.93,516.75c-3.79,0-8.74-2.69-19.14-22.22-5.38-10.1-9.7-20.02-9.88-20.43-.51-1.17-.41-2.53.27-3.61.68-1.09,1.84-1.77,3.12-1.84l52.35-2.54c1.34-.06,2.64.57,3.41,1.69.77,1.12.9,2.55.35,3.78-.2.44-4.87,10.97-10.6,21.68-11.05,20.63-16.08,23.48-19.87,23.48ZM604.56,508.99h0ZM585.37,476.16c7.61,16.61,16.01,30.73,19.54,32.67,3.91-2.2,13.15-18.44,20.72-34.62l-40.26,1.95Z"/>
    </g>
    <g>
      <path class="cls-8" d="M831.03,566.45s87.69-8,114.54-67.71c53.69-141.68-80.53-230.27-80.53-230.27,0,0-119.31-4.18-137.8-31.02-18.49-26.84-56.67-52.5-101.41-25.65-44.74,26.84-30.98,104.57-30.98,104.57-46.23,24.46-101.46,41.58-101.46,41.58,0,0-25.65-33.41-56.08-14.91-30.42,18.49-23.86,68.01-23.86,68.01,0,0-5.37,18.49,0,45.7,5.37,27.21,37.58,30.06,60.25,23.5,22.67-6.56,118.71-4.77,118.71-4.77,0,0,41.76,4.77,131.84-29.23,100.82-36.99,140.79,16.7,140.79,16.7"/>
      <path class="cls-7" d="M831.02,570.35c-1.99,0-3.69-1.52-3.88-3.54-.2-2.14,1.38-4.04,3.53-4.24.22-.02,21.85-2.09,46.37-11.3,22.27-8.36,51.61-24.53,64.92-54.02,11.94-31.56,15.26-62.99,9.86-93.42-4.33-24.41-14.25-48.28-29.48-70.96-23.71-35.3-53.18-56.77-58.59-60.55-5.8-.24-32.77-1.54-61.22-5.43-43.78-5.99-70.2-15.15-78.52-27.23-18.49-26.84-54.78-49.37-96.2-24.52-41.9,25.14-29.28,99.8-29.14,100.55.29,1.67-.52,3.33-2.02,4.13-46.02,24.35-101.57,41.69-102.13,41.86-1.56.48-3.26-.06-4.25-1.35-.96-1.24-23.92-30.39-50.96-13.96-27.86,16.94-22.08,63.69-22.02,64.17.07.53.03,1.08-.12,1.6-.05.17-5.02,18.03.08,43.86,1.53,7.76,5.61,13.7,12.14,17.68,12.6,7.68,31.15,6.33,43.21,2.83,22.97-6.65,115.93-5,119.87-4.93.12,0,.25.01.37.02.1.01,10.53,1.1,31.67-1.93,19.53-2.79,52.45-9.75,98.35-27.08,29.41-10.79,72.51-20.49,110.99-5.5,23.37,9.1,33.86,22.94,34.3,23.53,1.29,1.73.93,4.17-.8,5.46-1.73,1.29-4.17.93-5.46-.8-.09-.12-9.88-12.88-31.37-21.11-36.11-13.83-77-4.51-104.94,5.74-87.68,33.1-129.78,29.83-133.42,29.47-4.53-.08-95.98-1.58-117.39,4.62-14.22,4.12-34.68,5.32-49.43-3.66-8.47-5.16-13.76-12.84-15.73-22.83-4.92-24.96-1.13-42.76-.13-46.73-.76-6.83-4.63-52.56,25.8-71.06,13.75-8.36,28.77-8.18,43.46.5,7.64,4.52,13.25,10.2,15.95,13.24,10.96-3.54,56.52-18.77,95.88-39.23-.88-6.3-2.61-22.22-.9-40.43,2.94-31.1,14.74-53.69,34.14-65.33,21.04-12.62,43.13-15.26,63.9-7.62,22.17,8.15,36.29,25.05,42.73,34.41,14.25,20.69,102.09,28.19,134.73,29.34.72.02,1.41.25,2.01.64,1.4.92,34.52,23.04,61.49,63.08,15.89,23.59,26.26,48.49,30.81,74.01,5.69,31.92,2.24,64.83-10.26,97.82-.03.07-.06.15-.09.22-11.41,25.38-35.45,45.54-69.53,58.3-25.48,9.54-47.3,11.61-48.22,11.7-.12.01-.24.02-.36.02Z"/>
    </g>
    <path class="cls-6" d="M725.44,450.42c80.98-28.19,165.64,4.19,165.64,56.69,0,44.15-27.16,51.37-58.93,54.86"/>
    <g>
      <path class="cls-8" d="M865.03,462.94s-14.22-18.33-43.37-25.74"/>
      <path class="cls-7" d="M865.04,466.84c-1.16,0-2.31-.52-3.08-1.5-.2-.25-13.95-17.41-41.25-24.36-2.09-.53-3.35-2.65-2.82-4.74.53-2.09,2.65-3.35,4.74-2.82,30.1,7.66,44.87,26.34,45.49,27.13,1.32,1.7,1.01,4.15-.69,5.47-.71.55-1.55.82-2.39.82Z"/>
    </g>
    <g>
      <path class="cls-8" d="M865.28,293.76s11-87.98-69.35-94.18c-66.66-5.15-90.6,68.52-90.6,97.54"/>
      <path class="cls-7" d="M705.32,301.02c-2.15,0-3.9-1.75-3.9-3.9,0-18.61,9.69-57.09,35.68-81.16,16.43-15.21,36.31-22.03,59.12-20.27,23.49,1.81,41.79,10.56,54.4,26.01,23.65,28.97,18.74,70.78,18.52,72.55-.27,2.14-2.22,3.65-4.35,3.39-2.14-.27-3.65-2.21-3.39-4.35h0c.05-.4,4.69-40.34-16.85-66.68-11.21-13.71-27.67-21.49-48.93-23.13-20.54-1.58-38.45,4.54-53.22,18.21-24.17,22.38-33.18,58.15-33.18,75.43,0,2.15-1.75,3.9-3.9,3.9Z"/>
    </g>
    <g>
      <path class="cls-8" d="M646.28,292.05s-70.52,33.71-88.42,40.86c-17.9,7.16-33.72,15.7-45.36,18.83s-25.47,7.57-43.06,18.16"/>
      <path class="cls-7" d="M469.44,373.8c-1.32,0-2.61-.67-3.34-1.89-1.11-1.85-.51-4.24,1.33-5.35,17.76-10.69,31.67-15.25,44.06-18.58,6.71-1.81,14.98-5.54,24.56-9.86,6.48-2.92,13.18-5.95,20.36-8.82,17.57-7.03,87.48-40.42,88.19-40.76,1.94-.93,4.27-.11,5.2,1.84.93,1.94.11,4.27-1.84,5.2-2.88,1.38-70.84,33.84-88.65,40.97-7.03,2.81-13.65,5.8-20.05,8.69-9.89,4.46-18.42,8.32-25.74,10.29-11.84,3.19-25.13,7.54-42.07,17.73-.63.38-1.32.56-2.01.56Z"/>
    </g>
    <g>
      <path class="cls-8" d="M459.22,373.25s-17.9,7.38-25.06,23.71"/>
      <path class="cls-7" d="M434.16,400.87c-.52,0-1.05-.11-1.56-.33-1.97-.87-2.87-3.17-2.01-5.14,7.7-17.57,26.35-25.43,27.14-25.75,1.99-.82,4.27.13,5.09,2.12.82,1.99-.13,4.27-2.11,5.09h0c-.17.07-16.56,7.04-22.98,21.68-.64,1.46-2.07,2.34-3.57,2.34Z"/>
    </g>
    <path class="cls-7" d="M584.72,401.98c-.27,0-.55-.03-.83-.09-2.1-.46-3.44-2.53-2.98-4.63.06-.29,3.21-15.78-4.37-26.12-3.98-5.43-10.39-8.61-19.05-9.44-18.23-1.76-29.64,4.45-36,9.96-7.67,6.64-12.51,16.17-12.95,25.49-.1,2.15-1.93,3.82-4.08,3.71-2.15-.1-3.81-1.93-3.71-4.08.54-11.41,6.39-23.01,15.64-31.02,7.52-6.51,20.88-13.84,41.85-11.83,11,1.06,19.28,5.31,24.63,12.64,9.67,13.25,5.84,31.57,5.67,32.34-.4,1.83-2.01,3.07-3.81,3.07Z"/>
    <ellipse class="cls-7" cx="542.58" cy="395.25" rx="16.75" ry="12.09" transform="translate(-120.57 499.43) rotate(-45)"/>
    <g>
      <line class="cls-5" x1="817.46" y1="278.63" x2="732.36" y2="288.3"/>
      <path class="cls-2" d="M732.35,292.2c-1.96,0-3.64-1.47-3.87-3.46-.24-2.14,1.29-4.07,3.44-4.32l85.1-9.67c2.13-.25,4.07,1.29,4.32,3.44.24,2.14-1.29,4.07-3.44,4.32l-85.1,9.67c-.15.02-.3.03-.45.03Z"/>
    </g>
    <g>
      <path class="cls-5" d="M801.25,280.41c9.02,9.83,14.79,24.85,14.79,41.69,0,29.61-17.83,53.62-39.82,53.62s-39.82-24-39.82-53.62c0-13.54,3.73-25.89,9.88-35.32l54.97-6.36Z"/>
      <path class="cls-2" d="M776.21,379.61c-24.11,0-43.72-25.8-43.72-57.52,0-13.75,3.73-27.05,10.51-37.45.63-.97,1.67-1.61,2.82-1.75l54.97-6.36c1.24-.14,2.48.32,3.32,1.24,10.05,10.95,15.81,27.11,15.81,44.32,0,31.71-19.61,57.52-43.72,57.52ZM748.58,290.43c-5.36,8.92-8.29,20.09-8.29,31.67,0,27.41,16.11,49.72,35.92,49.72s35.92-22.3,35.92-49.72c0-14.52-4.52-28.08-12.47-37.58l-51.08,5.91Z"/>
    </g>
    <ellipse class="cls-2" cx="776.15" cy="324.35" rx="17.95" ry="26.34"/>
  </g>
</svg>