<?xml version="1.0" encoding="UTF-8"?>
<svg id="_레이어_2" data-name="레이어 2" xmlns="http://www.w3.org/2000/svg" viewBox="0 0 250.6 61.36">
  <defs>
    <style>
      .cls-1 {
        fill: #281b05;
      }

      .cls-2 {
        fill: #ffc931;
      }
    </style>
  </defs>
  <g id="score">
    <g>
      <path class="cls-1" d="M7.42,57.31c-.74-1.14-1.02-2.08-.86-2.82.9-2.12,1.39-3.31,1.47-3.56l2.21.12c1.39.74,3.88,1.27,7.48,1.59,4.41.98,8.13,1.37,11.16,1.16,3.02-.2,4.78-1.25,5.27-3.13.33-1.14.16-2.1-.49-2.88-.66-.78-2.04-1.61-4.17-2.51-1.31-.49-4.01-1.33-8.09-2.51-4.09-1.18-7.11-2.39-9.07-3.62-4.25-2.61-6.33-7.03-6.25-13.24.08-3.84.96-7.4,2.64-10.67,1.67-3.27,3.9-5.56,6.68-6.87,4.58-2.04,10.95-2.74,19.13-2.08,3.02.16,6.09.86,9.19,2.08.82.25,1.59.74,2.33,1.47.74.74,1.06,1.55.98,2.45-.74,7.03-1.35,11.57-1.84,13.61-.25.9-.8,1.39-1.65,1.47-.86.08-1.53-.04-2.02-.37-4.17-1.88-8.05-2.82-11.65-2.82-5.88-.08-8.91,1.31-9.07,4.17-.08,2.62,2,4.7,6.25,6.25,6.78,2.37,11.07,4.05,12.87,5.03,2.37,1.47,4.09,2.84,5.15,4.11,1.06,1.27,1.55,2.96,1.47,5.09-.16,3.68-1.25,6.46-3.25,8.34-2,1.88-4.15,3.02-6.44,3.43-6.05.82-11.89.82-17.53,0-2.53-.33-6.5-1.43-11.89-3.31Z"/>
      <path class="cls-1" d="M92.88,31.44c-3.84-1.72-7.4-2.57-10.67-2.57-9.48,0-14.43,3.23-14.83,9.69-.33,3.6.2,6.58,1.59,8.95,2.12,2.94,6.05,4.5,11.77,4.66,4.25.08,8.95-.29,14.1-1.1.74-.16,1.25,0,1.53.49.29.49.43,1.43.43,2.82v2.21c0,.57-.08,1-.25,1.29-.17.29-.29.47-.37.55-.08.08-.29.17-.61.25-.33.08-.57.17-.74.25-3.35,1.55-7.48,2.25-12.38,2.08-10.71-.16-18.19-3.19-22.44-9.07-3.68-4.82-5.52-10.87-5.52-18.15,0-4.33.8-8.52,2.39-12.57s3.86-7.01,6.8-8.89c4.33-3.02,11.36-4.49,21.09-4.41,3.92,0,7.48.61,10.67,1.84,1.06.41,1.76,1.15,2.08,2.21.49,2.21.55,5.17.18,8.89-.37,3.72-.96,6.93-1.78,9.62-.49.98-1.51,1.31-3.06.98Z"/>
      <path class="cls-1" d="M110.65,12.56c.16-.41.49-.86.98-1.35s1.08-.98,1.78-1.47c.69-.49,1.16-.86,1.41-1.1,3.19-1.14,6.95-1.8,11.28-1.96,4.33-.16,8.58.43,12.75,1.78s6.87,3.49,8.09,6.44c2.04,5.31,3,10.83,2.88,16.55-.12,5.72-1.57,11.26-4.35,16.61-2.78,5.35-6.5,9.26-11.16,11.71-.9.49-1.88.82-2.94.98-1.06.16-1.92.23-2.57.18-.66-.04-1.72-.16-3.19-.37-1.47-.2-2.41-.31-2.82-.31-5.56-.49-9.95-3.19-13.18-8.09-3.23-4.9-4.56-10.22-3.98-15.94.9-10.71,1.88-17.33,2.94-19.86.41-2.12,1.1-3.39,2.08-3.8ZM116.66,29.61c-2.04,7.36-1.92,13,.37,16.92.9,1.72,1.98,2.84,3.25,3.37,1.27.53,2.35.66,3.25.37.9-.29,1.76-.22,2.57.18,2.12-.33,3.94-2.08,5.46-5.27,1.51-3.19,2.23-6.39,2.15-9.62-.08-3.23-.78-5.82-2.08-7.79-1.39-2.12-2.57-3.43-3.56-3.92-.98-.49-2.9-.86-5.76-1.1-.82-.16-2.7,2.13-5.64,6.87Z"/>
      <path class="cls-1" d="M187.89,18.69c-4.82,1.64-7.64,4.25-8.46,7.85-1.39,10.54-2.21,21.25-2.45,32.12.08.49-.16,1.02-.74,1.59-.57.57-1.19.94-1.84,1.1-.49,0-2.1-.08-4.84-.25-2.74-.16-5.01-.2-6.8-.12-1.23-.25-1.76-.82-1.59-1.72-.08-3.02-.18-6.38-.31-10.05-.12-3.68-.23-7.03-.31-10.05-.25-11.2-.61-20.35-1.1-27.46,0-1.23.37-1.88,1.1-1.96.41-.33,2.08-.63,5.03-.92,2.94-.29,5.8-.41,8.58-.37,2.78.04,4.09.35,3.92.92l-.25,5.03c1.14-.82,2.45-1.67,3.92-2.57,1.47-.9,2.78-1.51,3.92-1.84,4.58-1.31,8.95-1.47,13.12-.49,1.06.17,1.39,1.66.98,4.48-.41,2.82-1.1,4.19-2.08,4.11-4.9-.41-8.17-.2-9.81.61Z"/>
      <path class="cls-1" d="M233.32,42.05c-6.09.29-11.26.27-15.51-.06,0,4.33,1.27,7.34,3.8,9.01,2.53,1.68,6.17,2.51,10.91,2.51,3.6,0,7.36-.49,11.28-1.47.74-.08,1.31.06,1.72.43.41.37.57,1,.49,1.9-.25,3.19-1.23,5.07-2.94,5.64-3.43.82-7.32,1.23-11.65,1.23-9.15,0-15.74-2.16-19.74-6.5-2.94-3.02-5.03-6.27-6.25-9.75-1.23-3.47-1.68-8.03-1.35-13.67.49-9.15,3.39-15.77,8.7-19.86,4.17-3.27,9.48-4.78,15.94-4.54,2.61.08,5.78,1,9.5,2.76,3.72,1.76,6.11,3.33,7.17,4.72,1.06,1.64,2.25,4.97,3.56,9.99,1.31,5.03,1.84,8.77,1.59,11.22-.16,1.64-.66,2.84-1.47,3.62-.82.78-2.08,1.37-3.8,1.78-1.88.41-5.87.76-11.95,1.04ZM222.71,25.19c-1.88,2.53-2.9,5.72-3.06,9.56,8.75.49,15.49.12,20.23-1.1,1.31-.25,1.8-1.14,1.47-2.7-.49-2.94-1.49-5.21-3-6.8-1.51-1.59-4.23-2.47-8.15-2.64-3.11-.08-5.6,1.15-7.48,3.68Z"/>
    </g>
    <g>
      <path class="cls-2" d="M1.35,51.24c-.74-1.14-1.02-2.08-.86-2.82.9-2.12,1.39-3.31,1.47-3.56l2.21.12c1.39.74,3.88,1.27,7.48,1.59,4.41.98,8.13,1.37,11.16,1.16,3.02-.2,4.78-1.25,5.27-3.13.33-1.14.16-2.1-.49-2.88-.66-.78-2.04-1.61-4.17-2.51-1.31-.49-4.01-1.33-8.09-2.51-4.09-1.18-7.11-2.39-9.07-3.62C2,30.48-.08,26.07,0,19.85c.08-3.84.96-7.4,2.64-10.67,1.67-3.27,3.9-5.56,6.68-6.87C13.9.28,20.27-.42,28.45.24c3.02.16,6.09.86,9.19,2.08.82.25,1.59.74,2.33,1.47.74.74,1.06,1.55.98,2.45-.74,7.03-1.35,11.57-1.84,13.61-.25.9-.8,1.39-1.65,1.47-.86.08-1.53-.04-2.02-.37-4.17-1.88-8.05-2.82-11.65-2.82-5.88-.08-8.91,1.31-9.07,4.17-.08,2.62,2,4.7,6.25,6.25,6.78,2.37,11.07,4.05,12.87,5.03,2.37,1.47,4.09,2.84,5.15,4.11,1.06,1.27,1.55,2.96,1.47,5.09-.16,3.68-1.25,6.46-3.25,8.34-2,1.88-4.15,3.02-6.44,3.43-6.05.82-11.89.82-17.53,0-2.53-.33-6.5-1.43-11.89-3.31Z"/>
      <path class="cls-2" d="M86.8,25.37c-3.84-1.72-7.4-2.57-10.67-2.57-9.48,0-14.43,3.23-14.83,9.69-.33,3.6.2,6.58,1.59,8.95,2.12,2.94,6.05,4.5,11.77,4.66,4.25.08,8.95-.29,14.1-1.1.74-.16,1.25,0,1.53.49.29.49.43,1.43.43,2.82v2.21c0,.57-.08,1-.25,1.29-.17.29-.29.47-.37.55-.08.08-.29.17-.61.25-.33.08-.57.17-.74.25-3.35,1.55-7.48,2.25-12.38,2.08-10.71-.16-18.19-3.19-22.44-9.07-3.68-4.82-5.52-10.87-5.52-18.15,0-4.33.8-8.52,2.39-12.57s3.86-7.01,6.8-8.89c4.33-3.02,11.36-4.49,21.09-4.41,3.92,0,7.48.61,10.67,1.84,1.06.41,1.76,1.15,2.08,2.21.49,2.21.55,5.17.18,8.89-.37,3.72-.96,6.93-1.78,9.62-.49.98-1.51,1.31-3.06.98Z"/>
      <path class="cls-2" d="M104.58,6.49c.16-.41.49-.86.98-1.35s1.08-.98,1.78-1.47c.69-.49,1.16-.86,1.41-1.1,3.19-1.14,6.95-1.8,11.28-1.96,4.33-.16,8.58.43,12.75,1.78s6.87,3.49,8.09,6.44c2.04,5.31,3,10.83,2.88,16.55-.12,5.72-1.57,11.26-4.35,16.61-2.78,5.35-6.5,9.26-11.16,11.71-.9.49-1.88.82-2.94.98-1.06.16-1.92.23-2.57.18-.66-.04-1.72-.16-3.19-.37-1.47-.2-2.41-.31-2.82-.31-5.56-.49-9.95-3.19-13.18-8.09-3.23-4.9-4.56-10.22-3.98-15.94.9-10.71,1.88-17.33,2.94-19.86.41-2.12,1.1-3.39,2.08-3.8ZM110.59,23.53c-2.04,7.36-1.92,13,.37,16.92.9,1.72,1.98,2.84,3.25,3.37,1.27.53,2.35.66,3.25.37.9-.29,1.76-.22,2.57.18,2.12-.33,3.94-2.08,5.46-5.27,1.51-3.19,2.23-6.39,2.15-9.62-.08-3.23-.78-5.82-2.08-7.79-1.39-2.12-2.57-3.43-3.56-3.92-.98-.49-2.9-.86-5.76-1.1-.82-.16-2.7,2.13-5.64,6.87Z"/>
      <path class="cls-2" d="M181.82,12.62c-4.82,1.64-7.64,4.25-8.46,7.85-1.39,10.54-2.21,21.25-2.45,32.12.08.49-.16,1.02-.74,1.59-.57.57-1.19.94-1.84,1.1-.49,0-2.1-.08-4.84-.25-2.74-.16-5.01-.2-6.8-.12-1.23-.25-1.76-.82-1.59-1.72-.08-3.02-.18-6.38-.31-10.05-.12-3.68-.23-7.03-.31-10.05-.25-11.2-.61-20.35-1.1-27.46,0-1.23.37-1.88,1.1-1.96.41-.33,2.08-.63,5.03-.92,2.94-.29,5.8-.41,8.58-.37,2.78.04,4.09.35,3.92.92l-.25,5.03c1.14-.82,2.45-1.67,3.92-2.57,1.47-.9,2.78-1.51,3.92-1.84,4.58-1.31,8.95-1.47,13.12-.49,1.06.17,1.39,1.66.98,4.48-.41,2.82-1.1,4.19-2.08,4.11-4.9-.41-8.17-.2-9.81.61Z"/>
      <path class="cls-2" d="M227.24,35.98c-6.09.29-11.26.27-15.51-.06,0,4.33,1.27,7.34,3.8,9.01,2.53,1.68,6.17,2.51,10.91,2.51,3.6,0,7.36-.49,11.28-1.47.74-.08,1.31.06,1.72.43.41.37.57,1,.49,1.9-.25,3.19-1.23,5.07-2.94,5.64-3.43.82-7.32,1.23-11.65,1.23-9.15,0-15.74-2.16-19.74-6.5-2.94-3.02-5.03-6.27-6.25-9.75-1.23-3.47-1.68-8.03-1.35-13.67.49-9.15,3.39-15.77,8.7-19.86,4.17-3.27,9.48-4.78,15.94-4.54,2.61.08,5.78,1,9.5,2.76,3.72,1.76,6.11,3.33,7.17,4.72,1.06,1.64,2.25,4.97,3.56,9.99,1.31,5.03,1.84,8.77,1.59,11.22-.16,1.64-.66,2.84-1.47,3.62-.82.78-2.08,1.37-3.8,1.78-1.88.41-5.87.76-11.95,1.04ZM216.64,19.12c-1.88,2.53-2.9,5.72-3.06,9.56,8.75.49,15.49.12,20.23-1.1,1.31-.25,1.8-1.14,1.47-2.7-.49-2.94-1.49-5.21-3-6.8-1.51-1.59-4.23-2.47-8.15-2.64-3.11-.08-5.6,1.15-7.48,3.68Z"/>
    </g>
  </g>
</svg>