<?xml version="1.0" encoding="UTF-8"?>
<svg id="_레이어_2" data-name="레이어 2" xmlns="http://www.w3.org/2000/svg" viewBox="0 0 214.49 88.61">
  <defs>
    <style>
      .cls-1 {
        fill: #281b05;
      }

      .cls-2 {
        fill: #ffc931;
      }
    </style>
  </defs>
  <g id="time">
    <g>
      <path class="cls-1" d="M51,47.52c-6.46,0-10.87.12-13.24.37,0,.65-.04,2.84-.12,6.56-.08,3.72-.17,6.44-.25,8.15-.57,13.9-.94,21.38-1.1,22.44-.08,1.15-.61,1.84-1.59,2.08-3.19.9-7.19,1.23-12.01.98-.98,0-1.47-.65-1.47-1.96-.08-1.63-.25-7.44-.49-17.41-.25-9.97-.41-16.67-.49-20.11-.57-.16-2.58-.29-6.01-.37-3.43-.08-5.44-.16-6.01-.25-1.23-.16-1.84-.9-1.84-2.21-.57-5.31-.33-8.54.74-9.69.82-.82,2.33-1.31,4.54-1.47l4.05-.12c2.7-.16,4.33-.33,4.9-.49,0-1.31-.04-4.68-.12-10.11-.08-5.43-.17-8.72-.25-9.87-.17-.98-.1-1.92.18-2.82.29-.9.71-1.35,1.29-1.35.98-.16,3.58-.22,7.79-.18,4.21.04,6.72.06,7.54.06.98.16,1.55.57,1.72,1.23,0,7.11-.21,13.94-.61,20.47-.08,1.8.41,2.7,1.47,2.7h12.01c1.14,0,2,.66,2.58,1.96-.41,4.82-.74,7.72-.98,8.7-.16,1.55-.9,2.45-2.21,2.7Z"/>
      <path class="cls-1" d="M64.79,23.67c-.61-.45-1-.96-1.17-1.53-.57-2.29-1.23-6.01-1.96-11.16-.16-.82-.1-1.55.18-2.21.29-.65.67-1.02,1.16-1.1,5.64-.9,10.67-1.43,15.08-1.59,1.31-.08,2.47.7,3.49,2.33,1.02,1.64,1.37,2.94,1.04,3.92-1.72,5.23-2.7,8.01-2.94,8.34-.82.98-1.92,1.7-3.31,2.15-1.39.45-2.37.72-2.94.8-1.15.41-3.31.61-6.5.61-.82.08-1.53-.1-2.15-.55ZM65.53,34.95c1.84-.53,3.57-.9,5.21-1.1,1.63-.2,3.02-.35,4.17-.43,4.17-.41,6.25-.04,6.25,1.1,0,1.31-.06,4.25-.18,8.83-.12,4.58-.18,7.15-.18,7.72,0,.33-.12,1.29-.37,2.88-.25,1.59-.37,2.84-.37,3.74v9.93c0,.49-.04,1.57-.12,3.25-.08,1.68-.21,3.54-.37,5.58-.17,2.04-.25,3.23-.25,3.56-.08.74-.61,2.62-1.59,5.64-.49.98-2.68,1.68-6.56,2.08-3.88.41-6.07.08-6.56-.98-.33-.82-.74-5.72-1.23-14.71,0-4.98-.04-7.93-.12-8.83v-6.74c-.08-.98-.12-2.74-.12-5.27-.25-2.45-.37-7.23-.37-14.34,0-.74.92-1.37,2.76-1.9Z"/>
      <path class="cls-1" d="M113.41,39.92c2.86-1.39,5.68-2.17,8.46-2.33,3.51-.16,6.62,1.64,9.32,5.39,3.84-3.43,7.76-5.15,11.77-5.15,3.27,0,6.05.72,8.34,2.15,2.29,1.43,3.92,3.29,4.9,5.58,1.55,3.52,2.25,10.22,2.08,20.11,0,8.83-.37,15.33-1.1,19.49-.17,1.06-.74,1.68-1.72,1.84h-5.39c-.82-.08-1.33-.31-1.53-.67-.21-.37-.39-1-.55-1.9v-.37c.16-4.17.16-8.7,0-13.61-.17-7.76-.57-13.18-1.23-16.24-.66-3.07-2.17-4.6-4.54-4.6-.57,0-1.55.23-2.94.67-1.39.45-2.33.84-2.82,1.16-.49,18.72-.9,30.24-1.23,34.57.16.9-.2,1.43-1.1,1.59-2.13.41-4.25.53-6.38.37-1.8-.16-2.7-1.47-2.7-3.92v-10.54c.16-6.38-.04-11.36-.61-14.96-.65-3.27-1.31-5.46-1.96-6.56-.66-1.1-1.92-1.61-3.8-1.53-1.72.17-2.94.74-3.68,1.72-.25,4.17-.43,8.03-.55,11.59-.12,3.56-.23,7.36-.31,11.4-.08,4.05-.17,7.29-.25,9.75,0,1.64-.7,2.62-2.08,2.94-1.31.16-3.25.31-5.82.43-2.58.12-4.56.23-5.95.31-2.62.17-4.17-.61-4.66-2.33.33-16.18,0-31.51-.98-45.98-.17-.57-.1-1.21.18-1.9.29-.69.71-1.12,1.29-1.29,2.62-.74,6.05-1.18,10.3-1.35,4.25-.16,6.7.29,7.36,1.35l-.12,2.82Z"/>
      <path class="cls-1" d="M197.2,69.28c-6.09.29-11.26.27-15.51-.06,0,4.33,1.27,7.34,3.8,9.01,2.53,1.68,6.17,2.51,10.91,2.51,3.6,0,7.36-.49,11.28-1.47.74-.08,1.31.06,1.72.43.41.37.57,1,.49,1.9-.25,3.19-1.23,5.07-2.94,5.64-3.43.82-7.32,1.23-11.65,1.23-9.15,0-15.74-2.16-19.74-6.5-2.94-3.02-5.03-6.27-6.25-9.75-1.23-3.47-1.68-8.03-1.35-13.67.49-9.15,3.39-15.77,8.7-19.86,4.17-3.27,9.48-4.78,15.94-4.54,2.62.08,5.78,1,9.5,2.76,3.72,1.76,6.11,3.33,7.17,4.72,1.06,1.64,2.25,4.97,3.56,9.99,1.31,5.03,1.84,8.77,1.59,11.22-.16,1.64-.66,2.84-1.47,3.62-.82.78-2.08,1.37-3.8,1.78-1.88.41-5.87.76-11.95,1.04ZM186.6,52.42c-1.88,2.53-2.9,5.72-3.06,9.56,8.75.49,15.49.12,20.23-1.1,1.31-.25,1.8-1.14,1.47-2.7-.49-2.94-1.49-5.21-3-6.8-1.51-1.59-4.23-2.47-8.15-2.64-3.11-.08-5.6,1.15-7.48,3.68Z"/>
    </g>
    <g>
      <path class="cls-2" d="M44.93,41.45c-6.46,0-10.87.12-13.24.37,0,.65-.04,2.84-.12,6.56-.08,3.72-.17,6.44-.25,8.15-.57,13.9-.94,21.38-1.1,22.44-.08,1.15-.61,1.84-1.59,2.08-3.19.9-7.19,1.23-12.02.98-.98,0-1.47-.65-1.47-1.96-.08-1.63-.25-7.44-.49-17.41-.25-9.97-.41-16.67-.49-20.11-.57-.16-2.57-.29-6.01-.37-3.43-.08-5.44-.16-6.01-.25-1.23-.16-1.84-.9-1.84-2.21-.57-5.31-.33-8.54.74-9.69.82-.82,2.33-1.31,4.54-1.47l4.05-.12c2.7-.16,4.33-.33,4.9-.49,0-1.31-.04-4.68-.12-10.11-.08-5.43-.16-8.72-.25-9.87-.17-.98-.1-1.92.18-2.82.29-.9.71-1.35,1.29-1.35.98-.16,3.57-.22,7.79-.18,4.21.04,6.72.06,7.54.06.98.16,1.55.57,1.72,1.23,0,7.11-.21,13.94-.61,20.47-.08,1.8.41,2.7,1.47,2.7h12.01c1.14,0,2,.66,2.58,1.96-.41,4.82-.74,7.72-.98,8.7-.16,1.55-.9,2.45-2.21,2.7Z"/>
      <path class="cls-2" d="M58.72,17.6c-.61-.45-1-.96-1.17-1.53-.57-2.29-1.23-6.01-1.96-11.16-.16-.82-.1-1.55.18-2.21.29-.65.67-1.02,1.16-1.1C62.58.7,67.61.17,72.02,0c1.31-.08,2.47.7,3.49,2.33,1.02,1.64,1.37,2.94,1.04,3.92-1.72,5.23-2.7,8.01-2.94,8.34-.82.98-1.92,1.7-3.31,2.15-1.39.45-2.37.72-2.94.8-1.15.41-3.31.61-6.5.61-.82.08-1.53-.1-2.15-.55ZM59.46,28.88c1.84-.53,3.57-.9,5.21-1.1,1.63-.2,3.02-.35,4.17-.43,4.17-.41,6.25-.04,6.25,1.1,0,1.31-.06,4.25-.18,8.83-.12,4.58-.18,7.15-.18,7.72,0,.33-.12,1.29-.37,2.88-.25,1.59-.37,2.84-.37,3.74v9.93c0,.49-.04,1.57-.12,3.25-.08,1.68-.21,3.54-.37,5.58-.17,2.04-.25,3.23-.25,3.56-.08.74-.61,2.62-1.59,5.64-.49.98-2.68,1.68-6.56,2.08-3.88.41-6.07.08-6.56-.98-.33-.82-.74-5.72-1.23-14.71,0-4.98-.04-7.93-.12-8.83v-6.74c-.08-.98-.12-2.74-.12-5.27-.25-2.45-.37-7.23-.37-14.34,0-.74.92-1.37,2.76-1.9Z"/>
      <path class="cls-2" d="M107.33,33.84c2.86-1.39,5.68-2.17,8.46-2.33,3.51-.16,6.62,1.64,9.32,5.39,3.84-3.43,7.76-5.15,11.77-5.15,3.27,0,6.05.72,8.34,2.15,2.29,1.43,3.92,3.29,4.9,5.58,1.55,3.52,2.25,10.22,2.08,20.11,0,8.83-.37,15.33-1.1,19.49-.17,1.06-.74,1.68-1.72,1.84h-5.39c-.82-.08-1.33-.31-1.53-.67-.21-.37-.39-1-.55-1.9v-.37c.16-4.17.16-8.7,0-13.61-.17-7.76-.57-13.18-1.23-16.24-.66-3.07-2.17-4.6-4.54-4.6-.57,0-1.55.23-2.94.67-1.39.45-2.33.84-2.82,1.16-.49,18.72-.9,30.24-1.23,34.57.16.9-.2,1.43-1.1,1.59-2.13.41-4.25.53-6.38.37-1.8-.16-2.7-1.47-2.7-3.92v-10.54c.16-6.38-.04-11.36-.61-14.96-.65-3.27-1.31-5.46-1.96-6.56-.66-1.1-1.92-1.61-3.8-1.53-1.72.17-2.94.74-3.68,1.72-.25,4.17-.43,8.03-.55,11.59-.12,3.56-.23,7.36-.31,11.4-.08,4.05-.17,7.29-.25,9.75,0,1.64-.7,2.62-2.08,2.94-1.31.16-3.25.31-5.82.43-2.58.12-4.56.23-5.95.31-2.62.17-4.17-.61-4.66-2.33.33-16.18,0-31.51-.98-45.98-.17-.57-.1-1.21.18-1.9.29-.69.71-1.12,1.29-1.29,2.62-.74,6.05-1.18,10.3-1.35,4.25-.16,6.7.29,7.36,1.35l-.12,2.82Z"/>
      <path class="cls-2" d="M191.13,63.21c-6.09.29-11.26.27-15.51-.06,0,4.33,1.27,7.34,3.8,9.01,2.53,1.68,6.17,2.51,10.91,2.51,3.6,0,7.36-.49,11.28-1.47.74-.08,1.31.06,1.72.43.41.37.57,1,.49,1.9-.25,3.19-1.23,5.07-2.94,5.64-3.43.82-7.32,1.23-11.65,1.23-9.15,0-15.74-2.16-19.74-6.5-2.94-3.02-5.03-6.27-6.25-9.75-1.23-3.47-1.68-8.03-1.35-13.67.49-9.15,3.39-15.77,8.7-19.86,4.17-3.27,9.48-4.78,15.94-4.54,2.62.08,5.78,1,9.5,2.76,3.72,1.76,6.11,3.33,7.17,4.72,1.06,1.64,2.25,4.97,3.56,9.99,1.31,5.03,1.84,8.77,1.59,11.22-.16,1.64-.66,2.84-1.47,3.62-.82.78-2.08,1.37-3.8,1.78-1.88.41-5.87.76-11.95,1.04ZM180.52,46.35c-1.88,2.53-2.9,5.72-3.06,9.56,8.75.49,15.49.12,20.23-1.1,1.31-.25,1.8-1.14,1.47-2.7-.49-2.94-1.49-5.21-3-6.8-1.51-1.59-4.23-2.47-8.15-2.64-3.11-.08-5.6,1.15-7.48,3.68Z"/>
    </g>
  </g>
</svg>