<?xml version="1.0" encoding="UTF-8"?>
<svg id="_레이어_2" data-name="레이어 2" xmlns="http://www.w3.org/2000/svg" viewBox="0 0 600.13 102.57">
  <defs>
    <style>
      .cls-1 {
        fill: #3b5112;
      }
    </style>
  </defs>
  <g>
    <path class="cls-1" d="M59.81,27.01c0,2.86-.35,5.58-1.05,8.17s-1.81,5.08-3.34,7.48c-1.53,2.39-3.42,4.45-5.68,6.18-2.26,1.73-5.08,3.11-8.47,4.14-3.39,1.03-7.18,1.54-11.36,1.54s-7.97-.51-11.36-1.54c-3.39-1.03-6.21-2.41-8.47-4.14-2.26-1.73-4.15-3.79-5.68-6.18-1.53-2.39-2.64-4.88-3.34-7.48s-1.05-5.32-1.05-8.17c0-7.51,2.36-13.82,7.08-18.94C11.79,2.96,18.74.27,27.91,0v6.98c-3.19.86-5.38,2.92-6.58,6.18-1.2,3.26-1.79,7.87-1.79,13.86,0,3.19.12,5.85.35,7.97.23,2.13.68,4.22,1.35,6.28.66,2.06,1.71,3.59,3.14,4.58,1.43,1,3.27,1.5,5.53,1.5s4.1-.5,5.53-1.5c1.43-1,2.47-2.52,3.14-4.58.66-2.06,1.11-4.15,1.35-6.28.23-2.13.35-4.79.35-7.97,0-5.98-.6-10.6-1.79-13.86-1.2-3.26-3.39-5.32-6.58-6.18V0c9.17.27,16.11,2.96,20.83,8.07,4.72,5.12,7.08,11.43,7.08,18.94ZM17.44,70.57c-1.66.07-2.86.33-3.59.8-.73.47-1.23,1.26-1.5,2.39-.27,1.06-1.06,1.59-2.39,1.59s-1.99-.6-1.99-1.79v-9.97h76.75v23.72c.07,1.46.35,2.51.85,3.14.5.63,1.25,1.15,2.24,1.54,1.13.46,1.65,1.26,1.54,2.39-.1,1.13-.71,1.69-1.84,1.69h-25.52c-1.13,0-1.74-.55-1.84-1.64s.41-1.88,1.54-2.34c1.06-.4,1.84-.96,2.34-1.69.5-.73.75-1.99.75-3.79v-16.05H17.44ZM84.73,9.37v15.05h12.36v6.98h-12.36v28.21h-19.94V10.07c0-1.79-.25-3.06-.75-3.79-.5-.73-1.28-1.3-2.34-1.69-1.13-.46-1.64-1.25-1.54-2.34.1-1.1.71-1.64,1.84-1.64h25.52c1.13,0,1.74.57,1.84,1.69.1,1.13-.42,1.93-1.54,2.39-1,.4-1.74.91-2.24,1.54-.5.63-.78,1.68-.85,3.14Z"/>
    <path class="cls-1" d="M167.76,11.06c0-1.79-.25-3.06-.75-3.79-.5-.73-1.28-1.3-2.34-1.69-1.13-.46-1.64-1.25-1.54-2.34.1-1.1.71-1.65,1.84-1.65h25.52c1.13,0,1.74.57,1.84,1.69.1,1.13-.42,1.93-1.54,2.39-1,.4-1.74.91-2.24,1.54-.5.63-.78,1.68-.85,3.14v75.76c.06,1.46.35,2.51.85,3.14.5.63,1.25,1.15,2.24,1.54,1.13.46,1.64,1.26,1.54,2.39-.1,1.13-.71,1.69-1.84,1.69h-25.52c-1.13,0-1.74-.55-1.84-1.64s.41-1.88,1.54-2.34c1.06-.4,1.84-.96,2.34-1.69.5-.73.75-1.99.75-3.79v-37.88h-8.17c-.13,5.58-.78,10.83-1.94,15.75-1.16,4.92-2.88,9.44-5.13,13.56-2.26,4.12-5.3,7.38-9.12,9.77-3.82,2.39-8.19,3.59-13.11,3.59s-9.52-1.25-13.41-3.74c-3.89-2.49-6.94-5.87-9.17-10.12-2.23-4.25-3.9-8.92-5.03-14-1.13-5.08-1.69-10.48-1.69-16.2,0-7.58.91-14.5,2.74-20.78,1.83-6.28,4.87-11.58,9.12-15.9,4.25-4.32,9.4-6.64,15.45-6.98v6.98c-3.19,1.33-5.3,4.87-6.33,10.62-1.03,5.75-1.54,14.47-1.54,26.17,0,5.92.1,10.81.3,14.7.2,3.89.63,7.64,1.3,11.26.66,3.62,1.68,6.31,3.04,8.07,1.36,1.76,3.11,2.64,5.23,2.64s3.87-.88,5.23-2.64c1.36-1.76,2.38-4.45,3.04-8.07.66-3.62,1.1-7.38,1.3-11.26.2-3.89.3-8.79.3-14.7,0-11.7-.52-20.42-1.54-26.17-1.03-5.75-3.14-9.29-6.33-10.62V2.49c5.52.27,10.3,2.24,14.35,5.93,4.05,3.69,7.08,8.27,9.07,13.76,1.99,5.48,3.22,11.61,3.69,18.39h8.37V11.06Z"/>
    <path d="M227.19,82.22c7.78,0,15.08-1.32,21.9-3.96v-43.94c0-1.3-.18-2.21-.54-2.74-.36-.53-.92-.94-1.69-1.22-.82-.34-1.19-.9-1.12-1.69.07-.79.52-1.19,1.33-1.19h18.44c.82,0,1.26.41,1.33,1.22.07.82-.3,1.39-1.12,1.73-.72.29-1.26.66-1.62,1.12-.36.46-.56,1.21-.61,2.27v54.74c.05,1.06.25,1.81.61,2.27.36.46.9.83,1.62,1.12.82.34,1.19.91,1.12,1.73-.07.82-.52,1.22-1.33,1.22h-18.44c-.82,0-1.26-.4-1.33-1.19s.3-1.36,1.12-1.69c.77-.29,1.33-.7,1.69-1.22.36-.53.54-1.44.54-2.74v-4.54c-6.48,2.5-13.78,3.75-21.9,3.75h-26.43v-7.2c0-.86.48-1.3,1.44-1.3s1.54.39,1.73,1.15c.19.86.55,1.47,1.08,1.8.53.34,1.39.5,2.59.5h19.59ZM244.47,49.81c0,2.83-.42,5.56-1.26,8.17-.84,2.62-2.1,5.02-3.78,7.2-1.68,2.19-3.96,3.94-6.84,5.26-2.88,1.32-6.15,1.98-9.8,1.98s-6.91-.66-9.8-1.98c-2.88-1.32-5.16-3.07-6.84-5.26-1.68-2.18-2.94-4.58-3.78-7.2-.84-2.62-1.26-5.34-1.26-8.17,0-5.95,1.76-11.13,5.29-15.52,3.53-4.39,8.63-6.73,15.31-7.02v5.11c-2.45.43-4.09,2.2-4.93,5.29-.84,3.1-1.26,7.17-1.26,12.21,0,11.67,2.42,17.5,7.27,17.5s7.27-5.83,7.27-17.5c0-5.04-.42-9.11-1.26-12.21-.84-3.1-2.48-4.86-4.93-5.29v-5.11c6.67.29,11.78,2.63,15.31,7.02,3.53,4.39,5.29,9.57,5.29,15.52Z"/>
  </g>
  <g>
    <path d="M366.78,33.49c0,2.86-.35,5.58-1.05,8.17s-1.81,5.08-3.34,7.48c-1.53,2.39-3.42,4.45-5.68,6.18-2.26,1.73-5.08,3.11-8.47,4.14-3.39,1.03-7.18,1.54-11.36,1.54s-7.97-.51-11.36-1.54c-3.39-1.03-6.21-2.41-8.47-4.14-2.26-1.73-4.15-3.79-5.68-6.18-1.53-2.39-2.64-4.88-3.34-7.48s-1.05-5.32-1.05-8.17c0-7.51,2.36-13.82,7.08-18.94,4.72-5.12,11.66-7.81,20.83-8.07v6.98c-3.19.86-5.38,2.92-6.58,6.18-1.2,3.26-1.79,7.87-1.79,13.85,0,3.19.12,5.85.35,7.97.23,2.13.68,4.22,1.35,6.28.66,2.06,1.71,3.59,3.14,4.58,1.43,1,3.27,1.5,5.53,1.5s4.1-.5,5.53-1.5c1.43-1,2.47-2.52,3.14-4.58.66-2.06,1.11-4.15,1.35-6.28.23-2.13.35-4.78.35-7.97,0-5.98-.6-10.6-1.79-13.85-1.2-3.26-3.39-5.32-6.58-6.18v-6.98c9.17.27,16.11,2.96,20.83,8.07,4.72,5.12,7.08,11.43,7.08,18.94ZM331.09,102.57c-4.12,0-6.93-.78-8.42-2.34-1.5-1.56-2.24-4.34-2.24-8.32v-14.35c0-1.79-.25-3.06-.75-3.79-.5-.73-1.28-1.3-2.34-1.69-1.13-.46-1.64-1.25-1.54-2.34s.71-1.64,1.84-1.64h22.73v11.56h33.39v-11.56h19.94v34.49h-62.6ZM340.36,95.59h33.39v-8.97h-33.39v8.97ZM393.69,15.85v49.14h-19.94V16.55c0-1.79-.25-3.06-.75-3.79-.5-.73-1.28-1.3-2.34-1.69-1.13-.46-1.64-1.25-1.54-2.34s.71-1.64,1.84-1.64h25.52c1.13,0,1.74.57,1.84,1.69.1,1.13-.42,1.93-1.54,2.39-1,.4-1.74.91-2.24,1.54-.5.63-.78,1.68-.85,3.14Z"/>
    <path d="M429.97,54.42h23.23c2.19,0,3.72-.21,4.58-.65.86-.43,1.43-1.28,1.69-2.54.27-1.06,1.06-1.59,2.39-1.59s1.99.6,1.99,1.79v9.97h-43.16c-4.12,0-6.93-.78-8.42-2.34-1.5-1.56-2.24-4.34-2.24-8.32v-32c0-1.79-.25-3.06-.75-3.79-.5-.73-1.28-1.3-2.34-1.69-1.13-.46-1.64-1.25-1.54-2.34.1-1.1.71-1.64,1.84-1.64h22.73v45.15ZM437.75,94.5h42.66c2.19,0,3.72-.22,4.59-.65.86-.43,1.43-1.28,1.69-2.54.26-1.06,1.06-1.59,2.39-1.59s1.99.6,1.99,1.79v9.97h-62.6c-4.12,0-6.93-.78-8.42-2.34-1.5-1.56-2.24-4.34-2.24-8.32v-10.57c0-1.79-.25-3.06-.75-3.79-.5-.73-1.28-1.3-2.34-1.69-1.13-.46-1.64-1.25-1.54-2.34s.71-1.64,1.84-1.64h22.73v23.72ZM433.96,16.25v-6.98h27.21v9.97c0,1.2-.67,1.79-1.99,1.79s-2.13-.53-2.39-1.59c-.27-1.26-.83-2.11-1.69-2.54-.86-.43-2.39-.65-4.58-.65h-16.55ZM490.08,15.85v18.74h12.36v6.98h-12.36v32.2h-19.94V16.55c0-1.79-.25-3.06-.75-3.79-.5-.73-1.28-1.3-2.34-1.69-1.13-.46-1.64-1.25-1.54-2.34s.71-1.64,1.84-1.64h25.52c1.13,0,1.74.57,1.84,1.69.1,1.13-.42,1.93-1.54,2.39-1,.4-1.74.91-2.24,1.54-.5.63-.78,1.68-.85,3.14Z"/>
    <path d="M589.46,56.72c2.19,0,3.72-.21,4.59-.65.86-.43,1.43-1.28,1.69-2.54.27-1.06,1.06-1.59,2.39-1.59s1.99.6,1.99,1.79v12.96c0,1.2-.67,1.79-1.99,1.79s-2.13-.53-2.39-1.59c-.27-1.26-.83-2.11-1.69-2.54-.86-.43-2.39-.65-4.59-.65h-74.36c-2.19,0-3.72.22-4.59.65-.86.43-1.43,1.28-1.69,2.54-.27,1.06-1.06,1.59-2.39,1.59s-1.99-.6-1.99-1.79v-12.96c0-1.2.66-1.79,1.99-1.79s2.13.53,2.39,1.59c.26,1.26.83,2.11,1.69,2.54.86.43,2.39.65,4.59.65h27.21v-12.06h19.94v12.06h27.21ZM542.21,16.85c0-2.59-1-4.29-2.99-5.08-1.13-.46-1.64-1.25-1.54-2.34.1-1.1.71-1.64,1.84-1.64h25.52c1.13,0,1.74.57,1.84,1.69.1,1.13-.42,1.93-1.54,2.39-.67.27-1.18.53-1.54.8-.37.27-.71.76-1.05,1.5-.33.73-.5,1.63-.5,2.69v2.29c0,3.66,1.83,7.14,5.48,10.47,3.65,3.32,8.04,5.96,13.16,7.92,5.12,1.96,10.23,3.17,15.35,3.64.8.07,1.35.45,1.64,1.15.3.7.22,1.41-.25,2.14-.47.73-1.33,1.2-2.59,1.4-6.45.86-14.2.4-23.27-1.4-9.07-1.79-15.57-4.88-19.49-9.27-3.92,4.39-10.42,7.48-19.49,9.27-9.07,1.79-16.83,2.26-23.27,1.4-1.26-.2-2.13-.66-2.59-1.4-.47-.73-.55-1.45-.25-2.14.3-.7.85-1.08,1.64-1.15,5.12-.46,10.22-1.66,15.3-3.59,5.08-1.93,9.45-4.55,13.11-7.87,3.65-3.32,5.48-6.84,5.48-10.57v-2.29ZM569.23,79.15h-45.35c-1.66.07-2.86.33-3.59.8-.73.47-1.23,1.26-1.5,2.39-.27,1.06-1.06,1.59-2.39,1.59s-1.99-.6-1.99-1.79v-9.97h74.76v21.63c0,1,.17,1.83.5,2.49.33.66.68,1.11,1.05,1.35.36.23.88.51,1.54.85,1.13.46,1.65,1.26,1.55,2.39-.1,1.13-.71,1.69-1.84,1.69h-25.52c-1.13,0-1.74-.55-1.84-1.64-.1-1.1.41-1.88,1.54-2.34,1.06-.4,1.84-.96,2.34-1.7.5-.73.75-1.99.75-3.79v-13.96Z"/>
  </g>
</svg>