<?xml version="1.0" encoding="UTF-8"?>
<svg id="_레이어_2" data-name="레이어 2" xmlns="http://www.w3.org/2000/svg" viewBox="0 0 307.89 75.38">
  <defs>
    <style>
      .cls-1 {
        fill: #281b05;
      }

      .cls-2 {
        fill: #ffc931;
      }
    </style>
  </defs>
  <g id="score">
    <g>
      <path class="cls-1" d="M9.12,70.41c-.9-1.41-1.26-2.56-1.05-3.46,1.1-2.61,1.71-4.07,1.81-4.37l2.71.15c1.71.9,4.77,1.56,9.19,1.96,5.42,1.21,9.99,1.68,13.71,1.43,3.71-.25,5.87-1.53,6.48-3.84.4-1.41.2-2.58-.6-3.54-.8-.95-2.51-1.98-5.12-3.09-1.61-.6-4.92-1.63-9.94-3.09-5.02-1.45-8.74-2.94-11.15-4.44-5.22-3.21-7.78-8.64-7.68-16.27.1-4.72,1.18-9.09,3.24-13.1,2.06-4.02,4.79-6.83,8.21-8.44,5.62-2.51,13.46-3.36,23.5-2.56,3.71.2,7.48,1.05,11.3,2.56,1,.3,1.96.9,2.86,1.81s1.3,1.91,1.21,3.01c-.9,8.64-1.66,14.21-2.26,16.72-.3,1.11-.98,1.71-2.03,1.81-1.05.1-1.88-.05-2.49-.45-5.12-2.31-9.89-3.46-14.31-3.46-7.23-.1-10.95,1.61-11.15,5.12-.1,3.21,2.46,5.78,7.68,7.68,8.33,2.91,13.61,4.97,15.82,6.18,2.91,1.81,5.02,3.49,6.33,5.05,1.3,1.56,1.91,3.64,1.81,6.25-.2,4.52-1.53,7.93-3.99,10.24-2.46,2.31-5.1,3.72-7.91,4.22-7.43,1-14.61,1-21.54,0-3.11-.4-7.98-1.76-14.61-4.07Z"/>
      <path class="cls-1" d="M114.11,38.63c-4.72-2.11-9.09-3.16-13.1-3.16-11.65,0-17.73,3.97-18.23,11.9-.4,4.42.25,8.08,1.96,11,2.61,3.62,7.43,5.52,14.46,5.72,5.22.1,11-.35,17.32-1.36.9-.2,1.53,0,1.88.6.35.6.53,1.76.53,3.46v2.71c0,.7-.1,1.23-.3,1.58-.2.35-.35.58-.45.68-.1.1-.35.2-.75.3-.4.1-.7.2-.9.3-4.12,1.91-9.19,2.76-15.21,2.56-13.16-.2-22.34-3.92-27.57-11.15-4.52-5.92-6.78-13.35-6.78-22.29,0-5.32.98-10.47,2.94-15.44s4.75-8.61,8.36-10.92c5.32-3.71,13.96-5.52,25.91-5.42,4.82,0,9.19.75,13.1,2.26,1.3.5,2.16,1.41,2.56,2.71.6,2.71.68,6.35.23,10.92-.45,4.57-1.18,8.51-2.18,11.82-.6,1.21-1.86,1.61-3.77,1.21Z"/>
      <path class="cls-1" d="M135.95,15.43c.2-.5.6-1.05,1.21-1.66s1.33-1.21,2.18-1.81c.85-.6,1.43-1.05,1.73-1.36,3.92-1.41,8.53-2.21,13.86-2.41,5.32-.2,10.54.53,15.67,2.18,5.12,1.66,8.44,4.29,9.94,7.91,2.51,6.53,3.69,13.31,3.54,20.33-.15,7.03-1.93,13.83-5.35,20.41-3.42,6.58-7.98,11.37-13.71,14.39-1.11.6-2.31,1-3.62,1.21-1.31.2-2.36.28-3.16.23-.8-.05-2.11-.2-3.92-.45-1.81-.25-2.96-.38-3.46-.38-6.83-.6-12.23-3.92-16.19-9.94-3.97-6.02-5.6-12.55-4.9-19.58,1.1-13.15,2.31-21.29,3.62-24.4.5-2.61,1.36-4.17,2.56-4.67ZM143.33,36.37c-2.51,9.04-2.36,15.97.45,20.79,1.1,2.11,2.43,3.49,3.99,4.14,1.56.65,2.89.81,3.99.45,1.1-.35,2.16-.28,3.16.23,2.61-.4,4.84-2.56,6.7-6.48,1.86-3.92,2.74-7.86,2.64-11.82-.1-3.97-.96-7.15-2.56-9.56-1.71-2.61-3.16-4.22-4.37-4.82-1.21-.6-3.57-1.05-7.08-1.36-1-.2-3.31,2.61-6.93,8.44Z"/>
      <path class="cls-1" d="M230.85,22.97c-5.93,2.01-9.39,5.22-10.39,9.64-1.71,12.95-2.71,26.11-3.01,39.46.1.6-.2,1.26-.9,1.96-.7.7-1.46,1.16-2.26,1.36-.6,0-2.59-.1-5.95-.3-3.37-.2-6.15-.25-8.36-.15-1.51-.3-2.16-1-1.96-2.11-.1-3.71-.23-7.83-.38-12.35-.15-4.52-.28-8.64-.38-12.35-.3-13.76-.75-25-1.36-33.74,0-1.51.45-2.31,1.36-2.41.5-.4,2.56-.78,6.18-1.13,3.62-.35,7.13-.5,10.54-.45,3.41.05,5.02.43,4.82,1.13l-.3,6.18c1.4-1,3.01-2.06,4.82-3.16,1.81-1.1,3.41-1.86,4.82-2.26,5.62-1.6,11-1.81,16.12-.6,1.3.2,1.71,2.03,1.21,5.5-.5,3.46-1.36,5.15-2.56,5.05-6.03-.5-10.04-.25-12.05.75Z"/>
      <path class="cls-1" d="M286.65,51.66c-7.48.35-13.83.33-19.05-.08,0,5.32,1.56,9.01,4.67,11.07,3.11,2.06,7.58,3.09,13.41,3.09,4.42,0,9.04-.6,13.86-1.81.9-.1,1.6.08,2.11.53.5.45.7,1.23.6,2.33-.3,3.92-1.51,6.23-3.62,6.93-4.22,1-8.99,1.51-14.31,1.51-11.25,0-19.33-2.66-24.25-7.98-3.62-3.71-6.18-7.71-7.68-11.98-1.51-4.27-2.06-9.87-1.66-16.8.6-11.25,4.17-19.38,10.69-24.4,5.12-4.02,11.65-5.87,19.58-5.57,3.21.1,7.1,1.23,11.67,3.39,4.57,2.16,7.5,4.09,8.81,5.8,1.3,2.01,2.76,6.1,4.37,12.28,1.61,6.18,2.26,10.77,1.96,13.78-.2,2.01-.8,3.49-1.81,4.44-1,.96-2.56,1.68-4.67,2.18-2.31.5-7.21.93-14.69,1.28ZM273.62,30.95c-2.31,3.11-3.57,7.03-3.77,11.75,10.74.6,19.03.15,24.85-1.36,1.61-.3,2.21-1.41,1.81-3.31-.6-3.62-1.83-6.4-3.69-8.36-1.86-1.96-5.2-3.04-10.02-3.24-3.82-.1-6.88,1.41-9.19,4.52Z"/>
    </g>
    <g>
      <path class="cls-2" d="M1.66,62.95c-.9-1.41-1.26-2.56-1.05-3.46,1.1-2.61,1.71-4.07,1.81-4.37l2.71.15c1.71.9,4.77,1.56,9.19,1.96,5.42,1.21,9.99,1.68,13.71,1.43,3.71-.25,5.87-1.53,6.48-3.84.4-1.41.2-2.58-.6-3.54-.8-.95-2.51-1.98-5.12-3.09-1.61-.6-4.92-1.63-9.94-3.09-5.02-1.45-8.74-2.94-11.15-4.44C2.46,37.45-.1,32.03,0,24.39c.1-4.72,1.18-9.09,3.24-13.1,2.06-4.02,4.79-6.83,8.21-8.44C17.07.34,24.91-.51,34.95.29c3.71.2,7.48,1.05,11.3,2.56,1,.3,1.96.9,2.86,1.81s1.3,1.91,1.21,3.01c-.9,8.64-1.66,14.21-2.26,16.72-.3,1.11-.98,1.71-2.03,1.81-1.05.1-1.88-.05-2.49-.45-5.12-2.31-9.89-3.46-14.31-3.46-7.23-.1-10.95,1.61-11.15,5.12-.1,3.21,2.46,5.78,7.68,7.68,8.33,2.91,13.61,4.97,15.82,6.18,2.91,1.81,5.02,3.49,6.33,5.05,1.3,1.56,1.91,3.64,1.81,6.25-.2,4.52-1.53,7.93-3.99,10.24-2.46,2.31-5.1,3.72-7.91,4.22-7.43,1-14.61,1-21.54,0-3.11-.4-7.98-1.76-14.61-4.07Z"/>
      <path class="cls-2" d="M106.65,31.17c-4.72-2.11-9.09-3.16-13.1-3.16-11.65,0-17.73,3.97-18.23,11.9-.4,4.42.25,8.08,1.96,11,2.61,3.62,7.43,5.52,14.46,5.72,5.22.1,11-.35,17.32-1.36.9-.2,1.53,0,1.88.6.35.6.53,1.76.53,3.46v2.71c0,.7-.1,1.23-.3,1.58-.2.35-.35.58-.45.68-.1.1-.35.2-.75.3-.4.1-.7.2-.9.3-4.12,1.91-9.19,2.76-15.21,2.56-13.16-.2-22.34-3.92-27.57-11.15-4.52-5.92-6.78-13.35-6.78-22.29,0-5.32.98-10.47,2.94-15.44s4.75-8.61,8.36-10.92c5.32-3.71,13.96-5.52,25.91-5.42,4.82,0,9.19.75,13.1,2.26,1.3.5,2.16,1.41,2.56,2.71.6,2.71.68,6.35.23,10.92-.45,4.57-1.18,8.51-2.18,11.82-.6,1.21-1.86,1.61-3.77,1.21Z"/>
      <path class="cls-2" d="M128.49,7.97c.2-.5.6-1.05,1.21-1.66s1.33-1.21,2.18-1.81c.85-.6,1.43-1.05,1.73-1.36,3.92-1.41,8.53-2.21,13.86-2.41,5.32-.2,10.54.53,15.67,2.18,5.12,1.66,8.44,4.29,9.94,7.91,2.51,6.53,3.69,13.31,3.54,20.33-.15,7.03-1.93,13.83-5.35,20.41-3.42,6.58-7.98,11.37-13.71,14.39-1.11.6-2.31,1-3.62,1.21-1.31.2-2.36.28-3.16.23-.8-.05-2.11-.2-3.92-.45-1.81-.25-2.96-.38-3.46-.38-6.83-.6-12.23-3.92-16.19-9.94-3.97-6.02-5.6-12.55-4.9-19.58,1.1-13.15,2.31-21.29,3.62-24.4.5-2.61,1.36-4.17,2.56-4.67ZM135.87,28.91c-2.51,9.04-2.36,15.97.45,20.79,1.1,2.11,2.43,3.49,3.99,4.14,1.56.65,2.89.81,3.99.45,1.1-.35,2.16-.28,3.16.23,2.61-.4,4.84-2.56,6.7-6.48,1.86-3.92,2.74-7.86,2.64-11.82-.1-3.97-.96-7.15-2.56-9.56-1.71-2.61-3.16-4.22-4.37-4.82-1.21-.6-3.57-1.05-7.08-1.36-1-.2-3.31,2.61-6.93,8.44Z"/>
      <path class="cls-2" d="M223.38,15.51c-5.93,2.01-9.39,5.22-10.39,9.64-1.71,12.95-2.71,26.11-3.01,39.46.1.6-.2,1.26-.9,1.96-.7.7-1.46,1.16-2.26,1.36-.6,0-2.59-.1-5.95-.3-3.37-.2-6.15-.25-8.36-.15-1.51-.3-2.16-1-1.96-2.11-.1-3.71-.23-7.83-.38-12.35-.15-4.52-.28-8.64-.38-12.35-.3-13.76-.75-25-1.36-33.74,0-1.51.45-2.31,1.36-2.41.5-.4,2.56-.78,6.18-1.13,3.62-.35,7.13-.5,10.54-.45,3.41.05,5.02.43,4.82,1.13l-.3,6.18c1.4-1,3.01-2.06,4.82-3.16,1.81-1.1,3.41-1.86,4.82-2.26,5.62-1.6,11-1.81,16.12-.6,1.3.2,1.71,2.03,1.21,5.5-.5,3.46-1.36,5.15-2.56,5.05-6.03-.5-10.04-.25-12.05.75Z"/>
      <path class="cls-2" d="M279.19,44.2c-7.48.35-13.83.33-19.05-.08,0,5.32,1.56,9.01,4.67,11.07,3.11,2.06,7.58,3.09,13.41,3.09,4.42,0,9.04-.6,13.86-1.81.9-.1,1.6.08,2.11.53.5.45.7,1.23.6,2.33-.3,3.92-1.51,6.23-3.62,6.93-4.22,1-8.99,1.51-14.31,1.51-11.25,0-19.33-2.66-24.25-7.98-3.62-3.71-6.18-7.71-7.68-11.98-1.51-4.27-2.06-9.87-1.66-16.8.6-11.25,4.17-19.38,10.69-24.4,5.12-4.02,11.65-5.87,19.58-5.57,3.21.1,7.1,1.23,11.67,3.39,4.57,2.16,7.5,4.09,8.81,5.8,1.3,2.01,2.76,6.1,4.37,12.28,1.61,6.18,2.26,10.77,1.96,13.78-.2,2.01-.8,3.49-1.81,4.44-1,.96-2.56,1.68-4.67,2.18-2.31.5-7.21.93-14.69,1.28ZM266.16,23.49c-2.31,3.11-3.57,7.03-3.77,11.75,10.74.6,19.03.15,24.85-1.36,1.61-.3,2.21-1.41,1.81-3.31-.6-3.62-1.83-6.4-3.69-8.36-1.86-1.96-5.2-3.04-10.02-3.24-3.82-.1-6.88,1.41-9.19,4.52Z"/>
    </g>
  </g>
</svg>