<?xml version="1.0" encoding="UTF-8"?>
<svg id="_구름" data-name="구름" xmlns="http://www.w3.org/2000/svg" viewBox="0 0 252.52 40.95">
  <defs>
    <style>
      .cls-1 {
        fill: #3b5112;
      }
    </style>
  </defs>
  <g>
    <path class="cls-1" d="M25.49,11.51c0,1.22-.15,2.38-.45,3.48s-.77,2.17-1.42,3.19c-.65,1.02-1.46,1.9-2.42,2.63-.96.74-2.17,1.32-3.61,1.76-1.44.44-3.06.66-4.84.66s-3.4-.22-4.84-.66c-1.44-.44-2.65-1.03-3.61-1.76-.96-.74-1.77-1.61-2.42-2.63-.65-1.02-1.13-2.08-1.42-3.19S0,12.73,0,11.51C0,8.31,1,5.62,3.02,3.44,5.03,1.26,7.99.11,11.89,0v2.97c-1.36.37-2.29,1.25-2.8,2.63-.51,1.39-.76,3.36-.76,5.9,0,1.36.05,2.49.15,3.4.1.91.29,1.8.57,2.68.28.88.73,1.53,1.34,1.95.61.42,1.39.64,2.36.64s1.75-.21,2.36-.64c.61-.42,1.05-1.08,1.34-1.95.28-.88.47-1.77.57-2.68.1-.91.15-2.04.15-3.4,0-2.55-.25-4.52-.76-5.9-.51-1.39-1.44-2.27-2.8-2.63V0c3.91.11,6.87,1.26,8.88,3.44,2.01,2.18,3.02,4.87,3.02,8.07ZM7.43,30.07c-.71.03-1.22.14-1.53.34-.31.2-.52.54-.64,1.02-.11.45-.45.68-1.02.68s-.85-.25-.85-.76v-4.25h32.71v10.11c.03.62.15,1.07.36,1.34.21.27.53.49.96.66.48.2.7.54.66,1.02-.04.48-.3.72-.79.72h-10.87c-.48,0-.74-.23-.79-.7s.18-.8.66-1c.45-.17.79-.41,1-.72.21-.31.32-.85.32-1.61v-6.84H7.43ZM36.1,3.99v6.41h5.27v2.97h-5.27v12.02h-8.5V4.29c0-.76-.11-1.3-.32-1.61-.21-.31-.55-.55-1-.72-.48-.2-.7-.53-.66-1,.04-.47.3-.7.79-.7h10.87c.48,0,.74.24.79.72.04.48-.18.82-.66,1.02-.42.17-.74.39-.96.66-.21.27-.33.72-.36,1.34Z"/>
    <path class="cls-1" d="M71.49,4.71c0-.76-.11-1.3-.32-1.61-.21-.31-.55-.55-1-.72-.48-.2-.7-.53-.66-1,.04-.47.3-.7.79-.7h10.87c.48,0,.74.24.79.72.04.48-.18.82-.66,1.02-.42.17-.74.39-.96.66-.21.27-.33.72-.36,1.34v32.28c.03.62.15,1.07.36,1.34.21.27.53.49.96.66.48.2.7.54.66,1.02-.04.48-.3.72-.79.72h-10.87c-.48,0-.74-.23-.79-.7s.18-.8.66-1c.45-.17.79-.41,1-.72.21-.31.32-.85.32-1.61v-16.14h-3.48c-.06,2.38-.33,4.62-.83,6.71-.5,2.1-1.23,4.02-2.19,5.78-.96,1.76-2.26,3.14-3.89,4.16-1.63,1.02-3.49,1.53-5.59,1.53s-4.06-.53-5.71-1.59c-1.66-1.06-2.96-2.5-3.91-4.31-.95-1.81-1.66-3.8-2.15-5.97-.48-2.17-.72-4.47-.72-6.9,0-3.23.39-6.18,1.17-8.86.78-2.68,2.07-4.93,3.89-6.78,1.81-1.84,4.01-2.83,6.58-2.97v2.97c-1.36.57-2.26,2.07-2.7,4.52-.44,2.45-.66,6.17-.66,11.15,0,2.52.04,4.61.13,6.27.08,1.66.27,3.26.55,4.8.28,1.54.71,2.69,1.3,3.44.58.75,1.32,1.13,2.23,1.13s1.65-.38,2.23-1.13c.58-.75,1.01-1.9,1.3-3.44.28-1.54.47-3.14.55-4.8.08-1.66.13-3.74.13-6.27,0-4.98-.22-8.7-.66-11.15-.44-2.45-1.34-3.96-2.7-4.52V1.06c2.35.11,4.39.96,6.12,2.53,1.73,1.57,3.02,3.53,3.87,5.86.85,2.34,1.37,4.95,1.57,7.84h3.57V4.71Z"/>
    <path d="M96.81,35.04c3.31,0,6.42-.56,9.33-1.69V14.63c0-.55-.08-.94-.23-1.17-.15-.22-.39-.4-.72-.52-.35-.14-.51-.38-.48-.72.03-.34.22-.51.57-.51h7.86c.35,0,.54.17.57.52.03.35-.13.59-.48.74-.31.12-.54.28-.69.48-.15.19-.24.52-.26.97v23.33c.02.45.11.77.26.97.15.19.38.35.69.48.35.14.51.39.48.74-.03.35-.22.52-.57.52h-7.86c-.35,0-.54-.17-.57-.51s.13-.58.48-.72c.33-.12.57-.3.72-.52.15-.23.23-.61.23-1.17v-1.93c-2.76,1.06-5.87,1.6-9.33,1.6h-11.26v-3.07c0-.37.2-.55.61-.55s.65.16.74.49c.08.37.23.62.46.77.22.14.59.22,1.1.22h8.35ZM104.18,21.22c0,1.21-.18,2.37-.54,3.48-.36,1.12-.9,2.14-1.61,3.07-.72.93-1.69,1.68-2.92,2.24-1.23.56-2.62.84-4.17.84s-2.95-.28-4.17-.84c-1.23-.56-2.2-1.31-2.92-2.24-.72-.93-1.25-1.95-1.61-3.07-.36-1.11-.54-2.28-.54-3.48,0-2.54.75-4.74,2.26-6.61,1.5-1.87,3.68-2.87,6.52-2.99v2.18c-1.04.18-1.74.94-2.1,2.26-.36,1.32-.54,3.05-.54,5.2,0,4.97,1.03,7.46,3.1,7.46s3.1-2.49,3.1-7.46c0-2.15-.18-3.88-.54-5.2-.36-1.32-1.06-2.07-2.1-2.26v-2.18c2.84.12,5.02,1.12,6.52,2.99,1.5,1.87,2.26,4.08,2.26,6.61Z"/>
  </g>
  <g>
    <path d="M153.08,11.51c0,1.22-.15,2.38-.45,3.48s-.77,2.17-1.42,3.19c-.65,1.02-1.46,1.9-2.42,2.63-.96.74-2.17,1.32-3.61,1.76-1.44.44-3.06.66-4.84.66s-3.4-.22-4.84-.66c-1.44-.44-2.65-1.03-3.61-1.76-.96-.74-1.77-1.61-2.42-2.63-.65-1.02-1.13-2.08-1.42-3.19s-.45-2.27-.45-3.48c0-3.2,1-5.89,3.02-8.07C132.62,1.26,135.58.11,139.49,0v2.97c-1.36.37-2.29,1.25-2.8,2.63-.51,1.39-.76,3.36-.76,5.9,0,1.36.05,2.49.15,3.4.1.91.29,1.8.57,2.68.28.88.73,1.53,1.34,1.95.61.42,1.39.64,2.36.64s1.75-.21,2.36-.64c.61-.42,1.05-1.08,1.34-1.95.28-.88.47-1.77.57-2.68.1-.91.15-2.04.15-3.4,0-2.55-.25-4.52-.76-5.9-.51-1.39-1.44-2.27-2.8-2.63V0c3.91.11,6.87,1.26,8.88,3.44,2.01,2.18,3.02,4.87,3.02,8.07ZM137.87,40.95c-1.76,0-2.95-.33-3.59-1-.64-.67-.96-1.85-.96-3.55v-6.12c0-.76-.11-1.3-.32-1.61-.21-.31-.55-.55-1-.72-.48-.2-.7-.53-.66-1s.3-.7.79-.7h9.68v4.93h14.23v-4.93h8.5v14.7h-26.68ZM141.82,37.97h14.23v-3.82h-14.23v3.82ZM164.55,3.99v20.94h-8.5V4.29c0-.76-.11-1.3-.32-1.61-.21-.31-.55-.55-1-.72-.48-.2-.7-.53-.66-1s.3-.7.79-.7h10.87c.48,0,.74.24.79.72.04.48-.18.82-.66,1.02-.42.17-.74.39-.96.66-.21.27-.33.72-.36,1.34Z"/>
    <path d="M180.01,20.43h9.9c.93,0,1.59-.09,1.95-.28.37-.18.61-.55.72-1.08.11-.45.45-.68,1.02-.68s.85.25.85.76v4.25h-18.39c-1.76,0-2.95-.33-3.59-1-.64-.67-.96-1.85-.96-3.55V5.22c0-.76-.11-1.3-.32-1.61-.21-.31-.55-.55-1-.72-.48-.2-.7-.53-.66-1,.04-.47.3-.7.79-.7h9.68v19.24ZM183.32,37.51h18.18c.93,0,1.59-.09,1.95-.28.37-.18.61-.55.72-1.08.11-.45.45-.68,1.02-.68s.85.26.85.76v4.25h-26.68c-1.76,0-2.95-.33-3.59-1-.64-.67-.96-1.85-.96-3.55v-4.5c0-.76-.11-1.3-.32-1.61-.21-.31-.55-.55-1-.72-.48-.2-.7-.53-.66-1s.3-.7.79-.7h9.68v10.11ZM181.71,4.16V1.19h11.6v4.25c0,.51-.28.76-.85.76s-.91-.23-1.02-.68c-.11-.54-.35-.9-.72-1.08-.37-.18-1.02-.28-1.95-.28h-7.05ZM205.62,3.99v7.99h5.27v2.97h-5.27v13.72h-8.5V4.29c0-.76-.11-1.3-.32-1.61-.21-.31-.55-.55-1-.72-.48-.2-.7-.53-.66-1s.3-.7.79-.7h10.87c.48,0,.74.24.79.72.04.48-.18.82-.66,1.02-.42.17-.74.39-.96.66-.21.27-.33.72-.36,1.34Z"/>
    <path d="M247.97,21.41c.93,0,1.59-.09,1.95-.28.37-.18.61-.54.72-1.08.11-.45.45-.68,1.02-.68s.85.25.85.76v5.52c0,.51-.28.76-.85.76s-.91-.23-1.02-.68c-.11-.54-.35-.9-.72-1.08-.37-.18-1.02-.28-1.95-.28h-31.69c-.93,0-1.59.09-1.95.28-.37.18-.61.55-.72,1.08-.11.45-.45.68-1.02.68s-.85-.25-.85-.76v-5.52c0-.51.28-.76.85-.76s.91.23,1.02.68c.11.54.35.9.72,1.08.37.18,1.02.28,1.95.28h11.6v-5.14h8.5v5.14h11.6ZM227.84,4.42c0-1.1-.42-1.83-1.27-2.17-.48-.2-.7-.53-.66-1,.04-.47.3-.7.79-.7h10.87c.48,0,.74.24.79.72.04.48-.18.82-.66,1.02-.28.11-.5.23-.66.34-.16.11-.3.33-.45.64-.14.31-.21.69-.21,1.15v.98c0,1.56.78,3.04,2.34,4.46,1.56,1.42,3.43,2.54,5.61,3.38,2.18.84,4.36,1.35,6.54,1.55.34.03.57.19.7.49.13.3.09.6-.11.91-.2.31-.57.51-1.1.59-2.75.37-6.05.17-9.92-.59-3.87-.76-6.63-2.08-8.3-3.95-1.67,1.87-4.44,3.19-8.3,3.95-3.87.76-7.17.96-9.92.59-.54-.08-.91-.28-1.1-.59-.2-.31-.23-.62-.11-.91.13-.3.36-.46.7-.49,2.18-.2,4.35-.71,6.52-1.53,2.17-.82,4.03-1.94,5.59-3.36,1.56-1.42,2.34-2.92,2.34-4.5v-.98ZM239.35,30.97h-19.33c-.71.03-1.22.14-1.53.34-.31.2-.52.54-.64,1.02-.11.45-.45.68-1.02.68s-.85-.25-.85-.76v-4.25h31.86v9.22c0,.42.07.78.21,1.06.14.28.29.47.45.57.16.1.37.22.66.36.48.2.7.54.66,1.02-.04.48-.3.72-.79.72h-10.87c-.48,0-.74-.23-.79-.7-.04-.47.18-.8.66-1,.45-.17.79-.41,1-.72.21-.31.32-.85.32-1.61v-5.95Z"/>
  </g>
</svg>